<svg xmlns="http://www.w3.org/2000/svg" width="673" height="540" viewBox="0 0 673 540">
  <defs>
    <style>
      .cls-1 {
        fill: #59eb78;
      }

      .cls-2 {
        fill: #095a7c;
      }

      .cls-3 {
        fill: #0b6b84;
      }

      .cls-4, .cls-9 {
        fill: #abff4f;
      }

      .cls-5 {
        opacity: 0.6;
      }

      .cls-10, .cls-6 {
        fill: #04314e;
      }

      .cls-7 {
        fill: #064874;
      }

      .cls-12, .cls-8 {
        fill: #06d6a0;
      }

      .cls-10, .cls-15, .cls-9 {
        stroke: rgba(0,0,0,0);
      }

      .cls-11 {
        fill: #c5cfd6;
      }

      .cls-12, .cls-13, .cls-14 {
        fill-rule: evenodd;
      }

      .cls-13, .cls-16 {
        fill: #b28b67;
      }

      .cls-14, .cls-15 {
        fill: #183059;
      }

      .cls-15 {
        stroke-miterlimit: 10;
      }
    </style>
  </defs>
  <g id="Group_1" data-name="Group 1" transform="translate(-1131 -213)">
    <g id="f-lb" transform="translate(1663 455)">
      <path id="f-lb-2" data-name="f-lb" class="cls-1" d="M127.986,3.376C124.041.7,118.8,0,114.076,0,95.64,0,78.311,6.84,63.341,17.032a118.671,118.671,0,0,0-22.019,20.1,58.867,58.867,0,0,0-9.434,14.041A48.375,48.375,0,0,0,28.46,61.991,111.159,111.159,0,0,0,26.515,75.8c-.128,1.82-1.185,11.477,1.841,11.641a4.177,4.177,0,0,0,0,.668c-6.57,10.274-10.63,22.314-14.394,33.729A229.732,229.732,0,0,0,5.87,152.063,329.391,329.391,0,0,0,.958,193.05C.791,196,.676,198.95.577,201.9q-.126,3.779-.251,7.557c-.092,2.823-.589,6.073-.14,8.88.391,2.444,2.506,2.074,2.6-.358.113-2.937.095-5.88.223-8.82q.256-5.852.538-11.7a273.592,273.592,0,0,1,15.515-79.376,185.077,185.077,0,0,1,13.474-29.74A207.372,207.372,0,0,1,49.084,64.173c5.762-7.38,11.752-14.59,18.812-20.843A144.678,144.678,0,0,1,86.4,29.722C94.631,24.5,102.843,19.4,111.755,15.391c4.633-2.084,9.353-3.95,14.021-5.95.84-.36,1.741-.709,2.549-1.126,2.7-1.39,1.808-3.483-.34-4.939"/>
    </g>
    <g id="fl-lb" transform="translate(1673 553)">
      <path id="fl-lb-2" data-name="fl-lb" class="cls-2" d="M-58.182,0c7.477,0,14.131.972,21.02,3.943A93.43,93.43,0,0,1-20.533,13.6c7.4,5.2,13.232,11.249,17.312,19.266,2.438,4.789,4.226,11.566,2.589,16.79-1.929,6.152-7.224,11.284-14.2,10.2-4.313-.67-8.267-3.525-11.545-6.212A43.659,43.659,0,0,1-36.028,42.27c-4.228-7-6.713-14.919-10.3-22.237-1.7-3.473-3.351-6.971-5.393-10.271a16.569,16.569,0,0,0-3.619-4.468c-.82-.65-4.278-1.774-2.956-3.233-19.39.255-36.568,15.147-40.291,33.58-.347,1.718-.618,3.45-.9,5.179-.181,1.092-.108,5.117-1.084,5.814-2.152,1.538-1.247-3.135-1.155-3.807q.358-2.608.76-5.211A43.366,43.366,0,0,1-88.315,12.683C-80.306,4.99-69.5,0-58.182,0" transform="translate(102)"/>
    </g>
    <g id="leaf" transform="translate(1691 355)">
      <path id="leaf-2" data-name="leaf" class="cls-3" d="M102.225,1.334A7.414,7.414,0,0,0,99.838.692,38.719,38.719,0,0,0,92.374,0,137.709,137.709,0,0,0,69.3,2.074c-4.8.83-10.61,3.622-15.388,2.106-8.324-2.642-16.738-2.512-24.635,1.26-7.221,3.449-12.7,10-15.9,17.078a43.407,43.407,0,0,0-2.995,7.652c-.237.542-.465,1.088-.67,1.642-.582,1.573-1.1,3.173-1.59,4.777-.207.684-.729,2.194-.11,2.486a45.46,45.46,0,0,0-2.6,5.652C3.286,50.378.962,56.578.215,62.568a27.912,27.912,0,0,0-.03,6.671c.127,1.1.074,3.307.819,4.142,1.58,1.772,2.392-.709,2.214-1.89C1.858,62.485,4.485,54.027,7.6,45.561a53.276,53.276,0,0,1,9.027-15.019,37.906,37.906,0,0,1,10.328-9,161.472,161.472,0,0,1,15.728-7.8c3.5-1.588,7.009-3.134,10.61-4.5a10.575,10.575,0,0,1,2.948-1.088c1.877-.007,4.537,1.379,6.351,1.894,5.964,1.7,12,3.867,18.168,4.733A23.43,23.43,0,0,0,92.113,13.4a10.628,10.628,0,0,0,1.787-.974,25.936,25.936,0,0,0,7.6-4.3,30.324,30.324,0,0,0,3.563-3.839,2.011,2.011,0,0,0,.47-1.264c.244-.128.406-.277.443-.451.269-1.286-2.184-1.31-3.754-1.233"/>
    </g>
    <g id="fl-t" transform="translate(1698 392)">
      <path id="fl-t-2" data-name="fl-t" class="cls-4" d="M85.98.66A47.063,47.063,0,0,0,75.329.033,66.182,66.182,0,0,0,26.489,23.2c-10.138,12-12.926,26.92-14.928,42-.2,1.5-.284,2.985-.4,4.486-.024.322-.06.609-.1.88A1.937,1.937,0,0,0,10.332,73,100.261,100.261,0,0,0,5.869,84.706C2.162,96.526-1.608,108.571.714,121a173.656,173.656,0,0,1,3.049-20.562c.079-.386.163-.769.252-1.151.009-.04.017-.081.027-.121a44.965,44.965,0,0,1,1.875-6.026c.008-.022.016-.043.024-.064.1-.259.208-.516.314-.774.219-.533.444-1.065.682-1.594q.121-.27.232-.546c1.112-2.726,1.582-5.8,2.578-8.618q.358-.962.749-1.916l.047-.112c.706-1.71,1.485-3.4,2.31-5.071a6.244,6.244,0,0,0,1.074-1.931,12.073,12.073,0,0,0,.891-1.722q.728-1.409,1.458-2.816l-.044.016q.734-1.35,1.467-2.689l.323-.589.524-.938c1.632-2.921,3.363-5.783,5.16-8.61.641-1.009,2.174-2.455,2.468-3.588.011-.042.013-.081.02-.122A64.29,64.29,0,0,1,39.967,36.924c-.651.7-2.034,3.091-2.4,3.564-1.119,1.447-2.334,2.795-3.554,4.158A88.517,88.517,0,0,0,27.8,52.274,144.959,144.959,0,0,0,18.519,67.51c-.027.031-.056.06-.082.091C17.017,69.352,16.123,72,15.1,74c4.046-1.874,8.521-3.1,12.674-4.759a104.134,104.134,0,0,0,12.059-5.676A134.574,134.574,0,0,0,55.25,53.743,61.078,61.078,0,0,0,69.7,40.477c4.912-5.934,9.414-11.919,12.2-19.124a57.426,57.426,0,0,0,3.082-10.967c.028-.163.064-.339.1-.523a35.925,35.925,0,0,0,1.726-3.958c.778-2.14,2.614-4.494-.83-5.246"/>
    </g>
    <g id="leaves" transform="translate(1150 379.999)">
      <path id="leaves-2" data-name="leaves" class="cls-1" d="M-1.323,82c.221,0,.463-.17.72-.5.593-.772.118-3.281-.138-4.629-.046-.24-.085-.447-.107-.587a29,29,0,0,0-.767-3.508,101.182,101.182,0,0,0-3.734-10.3c-.511-1.255-1.046-2.555-1.59-3.866-.1-.244-.188-.423-.258-.568-.25-.519-.25-.519.258-1.073l.09-.1a7.037,7.037,0,0,1,.925-.8,8.618,8.618,0,0,0,.778-.647A17.431,17.431,0,0,0-.892,48.375a17.684,17.684,0,0,0,.77-7.707A30.3,30.3,0,0,0-2.1,33.112,60.645,60.645,0,0,0-8.252,21.224a54.813,54.813,0,0,0-8.732-10.263c-3.551-3.223-8.292-6-14.5-8.479A30.708,30.708,0,0,0-40.75.313C-41.2.282-41.657.266-42.121.266a25.156,25.156,0,0,0-3.079.2c-.289.036-.591.095-.883.152a9.077,9.077,0,0,1-1.252.186l-.2.011c-.139.008-.247.014-.342.014-.384,0-.535-.111-1.018-.586A.7.7,0,0,0-49.354,0a.416.416,0,0,0-.374.319,1.144,1.144,0,0,0,.314,1.2,8.554,8.554,0,0,0-3.918,3.464A12.334,12.334,0,0,0-54.87,9.91,35.6,35.6,0,0,0-54.025,20.5,48.528,48.528,0,0,0-50.6,31.063a55.578,55.578,0,0,0,5.532,9.453,79.906,79.906,0,0,0,15.64,15.85,22.847,22.847,0,0,0,10.506,4.8,12.244,12.244,0,0,0,2,.166,13.419,13.419,0,0,0,4.2-.7c.105-.035.24-.074.4-.119.64-.185,1.607-.464,1.846-.863.214-.359.016-.669-.235-1.062-.074-.116-.15-.235-.222-.366q-.415-.753-.828-1.506c-.727-1.324-1.479-2.694-2.232-4.032-.119-.212-.245-.49-.378-.786a5.134,5.134,0,0,0-1.147-1.863.707.707,0,0,0-.19-.018,1.483,1.483,0,0,1-.6-.1c-.127-.081-.147-.311-.161-.463-.007-.077-.012-.137-.029-.147a6.522,6.522,0,0,0-2.274-.522c-.383-.045-.745-.087-1.031-.148-.789-.169-1.719-.38-2.638-.667a29.266,29.266,0,0,1-2.769-1.028c-.192-.082-.469-.241-.762-.41a5.243,5.243,0,0,0-1.552-.712A25.35,25.35,0,0,1-21.6,46.879a23.094,23.094,0,0,1,3.091,1.076c.121.052.322.163.554.292a5.139,5.139,0,0,0,1.62.7.264.264,0,0,0,.135-.03,60.263,60.263,0,0,0-4.122-5.869c-.768-.971-1.581-2.019-2.314-3.1-.047-.07-.164-.28-.311-.545a8.135,8.135,0,0,0-1.29-1.982c.468,0,1.484,1.1,2.092,1.75.176.19.328.353.424.445A28.275,28.275,0,0,1-19.488,42a54.1,54.1,0,0,1,3.313,4.492c1.468,2.193,2.757,4.479,3.953,6.634.275.5.572,1,.859,1.5a29.671,29.671,0,0,1,2.141,4.152.252.252,0,0,1,.149-.063c.16,0,.236.258.31.507a2.663,2.663,0,0,0,.084.254c.388.931.767,1.842,1.14,2.749.787,1.915,1.416,3.5,1.981,4.977l.03.079c.662,1.736,1.347,3.531,1.9,5.332a30.508,30.508,0,0,1,1.138,5.17c.088.7.149,1.406.182,2.1C-2.284,80.446-2,82-1.323,82ZM-4.54,49.348a18.932,18.932,0,0,1-3,5c.7-1.036,1.3-1.987,1.843-2.907.123-.208.356-.643.583-1.064C-4.831,49.853-4.565,49.358-4.54,49.348ZM-17.9,34.774c.318,0,.658,2.847.693,3.32a13.873,13.873,0,0,1-.547,4.673l0,.007,0-.007a17.9,17.9,0,0,0-.142-2.243c-.2-2.234-.472-5.294-.1-5.7A.125.125,0,0,1-17.9,34.774Z" transform="matrix(0.53, -0.848, 0.848, 0.53, 29.145, 0.001)"/>
    </g>
    <g id="ground" transform="translate(1142.005 519)">
      <g id="ground-2" data-name="ground" class="cls-5" transform="translate(-0.005)">
        <path id="Background_Shape" data-name="Background Shape" class="cls-6" d="M661.711,146.152c9.65,65.324-224.374,107.932-425.8,78.2-52.17-7.7-97.027-21.2-133.093-38C-.742,138.1-33.033,62.468,38.191,16.62,134.31-45.254,652.061,80.828,661.711,146.152Z"/>
      </g>
    </g>
    <g id="mobile-light" transform="translate(1241 237)">
      <rect id="Container" class="cls-7" width="159" height="302" rx="8"/>
      <circle id="Touch" class="cls-4" cx="15" cy="15" r="15" transform="translate(64 253)"/>
      <g id="Camera" transform="translate(64 16)">
        <circle id="Lens" class="cls-4" cx="2" cy="2" r="2"/>
        <rect id="Sensor" class="cls-4" width="21" height="4" rx="2" transform="translate(9)"/>
      </g>
      <g id="Rows" transform="translate(14 28)">
        <g id="Row">
          <rect id="Background" class="cls-8" width="131" height="54" rx="4"/>
          <g id="Text" transform="translate(39 16.2)">
            <rect id="Name" class="cls-4" width="73" height="8.1" rx="3"/>
            <rect id="Name-2" data-name="Name" class="cls-4" width="49" height="8.1" rx="3" transform="translate(0 13.5)"/>
          </g>
          <circle id="Avatar" class="cls-3" cx="12" cy="12" r="12" transform="translate(9 15)"/>
        </g>
        <g id="Row-2" data-name="Row" transform="translate(0 62)">
          <rect id="Background-2" data-name="Background" class="cls-8" width="131" height="42" rx="4"/>
          <g id="Text-2" data-name="Text" transform="translate(39 12.6)">
            <rect id="Name-3" data-name="Name" class="cls-4" width="73" height="6.3" rx="3"/>
            <rect id="Name-4" data-name="Name" class="cls-4" width="49" height="6.3" rx="3" transform="translate(0 10.5)"/>
          </g>
          <circle id="Avatar-2" data-name="Avatar" class="cls-3" cx="12" cy="12" r="12" transform="translate(9 9)"/>
        </g>
        <g id="Row-3" data-name="Row" transform="translate(0 112)">
          <rect id="Background-3" data-name="Background" class="cls-8" width="131" height="42" rx="4"/>
          <g id="Text-3" data-name="Text" transform="translate(39 12.6)">
            <rect id="Name-5" data-name="Name" class="cls-4" width="73" height="6.3" rx="3"/>
            <rect id="Name-6" data-name="Name" class="cls-4" width="49" height="6.3" rx="3" transform="translate(0 10.5)"/>
          </g>
          <circle id="Avatar-3" data-name="Avatar" class="cls-3" cx="12" cy="12" r="12" transform="translate(9 9)"/>
        </g>
        <g id="Row-4" data-name="Row" transform="translate(0 162)">
          <rect id="Background-4" data-name="Background" class="cls-8" width="131" height="42" rx="4"/>
          <g id="Text-4" data-name="Text" transform="translate(39 12.6)">
            <rect id="Name-7" data-name="Name" class="cls-4" width="73" height="6.3" rx="3"/>
            <rect id="Name-8" data-name="Name" class="cls-4" width="49" height="6.3" rx="3" transform="translate(0 10.5)"/>
          </g>
          <circle id="Avatar-4" data-name="Avatar" class="cls-3" cx="12" cy="12" r="12" transform="translate(9 9)"/>
        </g>
      </g>
    </g>
    <g id="web" transform="translate(1373 288)">
      <rect id="back" class="cls-6" width="335" height="346" rx="8"/>
      <rect id="profile-bg" class="cls-3" width="70" height="81" rx="8" transform="translate(249 43)"/>
      <g id="profile" transform="translate(259 58)">
        <circle id="Avatar-5" data-name="Avatar" class="cls-8" cx="16" cy="16" r="16" transform="translate(9)"/>
        <rect id="Name-9" data-name="Name" class="cls-4" width="50" height="6" rx="3" transform="translate(0 36)"/>
        <rect id="Name-10" data-name="Name" class="cls-4" width="34" height="6" rx="3" transform="translate(8 46)"/>
      </g>
      <path id="header" class="cls-3" d="M8,0H327a8,8,0,0,1,8,8V27a0,0,0,0,1,0,0H0a0,0,0,0,1,0,0V8A8,8,0,0,1,8,0Z"/>
      <g id="buttons" transform="translate(9 10)">
        <circle id="buttons-2" data-name="buttons" class="cls-4" cx="4" cy="4" r="4"/>
        <circle id="buttons-3" data-name="buttons" class="cls-4" cx="4" cy="4" r="4" transform="translate(12)"/>
        <circle id="buttons-4" data-name="buttons" class="cls-4" cx="4" cy="4" r="4" transform="translate(24)"/>
      </g>
      <g id="sidebar" transform="translate(249 132)">
        <rect id="Background-5" data-name="Background" class="cls-3" width="70" height="194" rx="8"/>
        <g id="Rows-2" data-name="Rows" transform="translate(18 18)">
          <rect id="Data" class="cls-8" width="34" height="26" rx="4"/>
          <rect id="Data-2" data-name="Data" class="cls-8" width="34" height="25" rx="4" transform="translate(0 34)"/>
          <rect id="Data-3" data-name="Data" class="cls-8" width="34" height="25" rx="4" transform="translate(0 67)"/>
          <rect id="Data-4" data-name="Data" class="cls-8" width="34" height="25" rx="4" transform="translate(0 133)"/>
          <rect id="Data-5" data-name="Data" class="cls-8" width="34" height="25" rx="4" transform="translate(0 100)"/>
        </g>
      </g>
      <g id="rows-3" data-name="rows" transform="translate(16 44)">
        <g id="Row-5" data-name="Row">
          <rect id="Container-2" data-name="Container" class="cls-7" width="225" height="47" rx="4"/>
          <g id="Text_Stuff" data-name="Text Stuff" transform="translate(9 14.1)">
            <rect id="Label" class="cls-8" width="167" height="7.05" rx="3"/>
            <rect id="Label-2" data-name="Label" class="cls-8" width="112.096" height="7.05" rx="3" transform="translate(0 11.75)"/>
          </g>
          <g id="Check" transform="translate(193.954 16.5)">
            <circle id="Background-6" data-name="Background" class="cls-9" cx="7" cy="7" r="7"/>
            <circle id="Indicator" class="cls-10" cx="3" cy="3" r="3" transform="translate(4 4)"/>
          </g>
        </g>
        <g id="Row-6" data-name="Row" transform="translate(0 55)">
          <rect id="Container-3" data-name="Container" class="cls-7" width="225" height="39" rx="4"/>
          <g id="Text_Stuff-2" data-name="Text Stuff" transform="translate(9 11.7)">
            <rect id="Label-3" data-name="Label" class="cls-8" width="167" height="5.85" rx="2.925"/>
            <rect id="Label-4" data-name="Label" class="cls-8" width="112.096" height="5.85" rx="2.925" transform="translate(0 9.75)"/>
          </g>
          <g id="Check-2" data-name="Check" transform="translate(193.954 12.5)">
            <circle id="Background-7" data-name="Background" class="cls-4" cx="7" cy="7" r="7"/>
            <circle id="Indicator-2" data-name="Indicator" class="cls-6" cx="3" cy="3" r="3" transform="translate(4 4)"/>
          </g>
        </g>
        <g id="Row-7" data-name="Row" transform="translate(0 102)">
          <rect id="Container-4" data-name="Container" class="cls-7" width="225" height="39" rx="4"/>
          <g id="Text_Stuff-3" data-name="Text Stuff" transform="translate(9 11.7)">
            <rect id="Label-5" data-name="Label" class="cls-8" width="167" height="5.85" rx="2.925"/>
            <rect id="Label-6" data-name="Label" class="cls-8" width="112.096" height="5.85" rx="2.925" transform="translate(0 9.75)"/>
          </g>
          <g id="Check-3" data-name="Check" transform="translate(193.954 12.5)">
            <circle id="Background-8" data-name="Background" class="cls-4" cx="7" cy="7" r="7"/>
            <circle id="Indicator-3" data-name="Indicator" class="cls-6" cx="3" cy="3" r="3" transform="translate(4 4)"/>
          </g>
        </g>
        <g id="Row-8" data-name="Row" transform="translate(0 243)">
          <rect id="Container-5" data-name="Container" class="cls-7" width="225" height="39" rx="4"/>
          <g id="Text_Stuff-4" data-name="Text Stuff" transform="translate(9 11.7)">
            <rect id="Label-7" data-name="Label" class="cls-8" width="167" height="5.85" rx="2.925"/>
            <rect id="Label-8" data-name="Label" class="cls-8" width="112.096" height="5.85" rx="2.925" transform="translate(0 9.75)"/>
          </g>
          <g id="Check-4" data-name="Check" transform="translate(193.954 12.5)">
            <circle id="Background-9" data-name="Background" class="cls-4" cx="7" cy="7" r="7"/>
            <circle id="Indicator-4" data-name="Indicator" class="cls-6" cx="3" cy="3" r="3" transform="translate(4 4)"/>
          </g>
        </g>
        <g id="Row-9" data-name="Row" transform="translate(0 196)">
          <rect id="Container-6" data-name="Container" class="cls-7" width="225" height="39" rx="4"/>
          <g id="Text_Stuff-5" data-name="Text Stuff" transform="translate(9 11.7)">
            <rect id="Label-9" data-name="Label" class="cls-8" width="167" height="5.85" rx="2.925"/>
            <rect id="Label-10" data-name="Label" class="cls-8" width="112.096" height="5.85" rx="2.925" transform="translate(0 9.75)"/>
          </g>
          <g id="Check-5" data-name="Check" transform="translate(193.954 12.5)">
            <circle id="Background-10" data-name="Background" class="cls-4" cx="7" cy="7" r="7"/>
            <circle id="Indicator-5" data-name="Indicator" class="cls-6" cx="3" cy="3" r="3" transform="translate(4 4)"/>
          </g>
        </g>
        <g id="Row-10" data-name="Row" transform="translate(0 149)">
          <rect id="Container-7" data-name="Container" class="cls-7" width="225" height="39" rx="4"/>
          <g id="Text_Stuff-6" data-name="Text Stuff" transform="translate(9 11.7)">
            <rect id="Label-11" data-name="Label" class="cls-8" width="167" height="5.85" rx="2.925"/>
            <rect id="Label-12" data-name="Label" class="cls-8" width="112.096" height="5.85" rx="2.925" transform="translate(0 9.75)"/>
          </g>
          <g id="Check-6" data-name="Check" transform="translate(193.954 12.5)">
            <circle id="Background-11" data-name="Background" class="cls-4" cx="7" cy="7" r="7"/>
            <circle id="Indicator-6" data-name="Indicator" class="cls-6" cx="3" cy="3" r="3" transform="translate(4 4)"/>
          </g>
        </g>
      </g>
    </g>
    <g id="graph" transform="translate(1623 213)">
      <rect id="sm" class="cls-2" width="6" height="25" rx="3" transform="translate(0 32)"/>
      <rect id="xl" class="cls-8" width="6" height="41" rx="3" transform="translate(14 16)"/>
      <rect id="lg" class="cls-2" width="6" height="49" rx="3" transform="translate(28 8)"/>
      <rect id="md" class="cls-3" width="6" height="41" rx="3" transform="translate(42 16)"/>
      <rect id="xxl" class="cls-4" width="6" height="57" rx="3" transform="translate(56)"/>
    </g>
    <g id="pie" transform="translate(1179 335)">
      <g id="pie-2" data-name="pie" transform="translate(40) rotate(180)">
        <path id="md-2" data-name="md" class="cls-4" d="M-20,20.256A20.191,20.191,0,0,1,0,0V20.256L-13.668,35A20.073,20.073,0,0,1-20,20.256Z" transform="translate(20) rotate(180)"/>
        <path id="lg-2" data-name="lg" class="cls-3" d="M-20.2,0H0A20.014,20.014,0,0,1-5.5,13.668,20.357,20.357,0,0,1-20.2,20,20.644,20.644,0,0,1-34,14.557Z" transform="translate(0.332 -20) rotate(180)"/>
        <path id="xl-2" data-name="xl" class="cls-7" d="M-20,20H0a19.745,19.745,0,0,0-1.578-7.765,20.041,20.041,0,0,0-4.3-6.359,20.04,20.04,0,0,0-6.359-4.3A19.746,19.746,0,0,0-20,0V20Zm-2-2v0L-30,0A18.353,18.353,0,0,0-40,10l18,8Z" transform="rotate(180)"/>
      </g>
    </g>
    <g id="chart-lg" transform="translate(1744 491)">
      <path id="lg-3" data-name="lg" class="cls-3" d="M37.766,37.179A10.513,10.513,0,1,1,30.1,19.5V0a30,30,0,1,0,0,60A29.69,29.69,0,0,0,52,50.5Z"/>
      <path id="md-3" data-name="md" class="cls-2" d="M0,0V19.5A10.5,10.5,0,0,1,10.5,30H30A30.092,30.092,0,0,0,0,0Z" transform="translate(30)"/>
      <path id="sm-2" data-name="sm" class="cls-8" d="M4.1,0A10.64,10.64,0,0,1,0,8.391L12.262,24A30.413,30.413,0,0,0,24,0Z" transform="translate(36 30)"/>
    </g>
    <g id="chart-sm" transform="translate(1562 224)">
      <path id="lg-4" data-name="lg" class="cls-8" d="M29.051,28.5a8.074,8.074,0,1,1-5.9-13.554V0A23.146,23.146,0,0,0,0,23,23.146,23.146,0,0,0,23.15,46,22.873,22.873,0,0,0,40,38.718Z"/>
      <path id="md-4" data-name="md" class="cls-4" d="M0,0V14.95A8.05,8.05,0,0,1,8.05,23H23A23.071,23.071,0,0,0,0,0Z" transform="translate(23)"/>
      <path id="sm-3" data-name="sm" class="cls-3" d="M3.073,0A7.98,7.98,0,0,1,0,6.293L9.2,18A22.81,22.81,0,0,0,18,0Z" transform="translate(28 23)"/>
    </g>
    <g id="image-sm" transform="translate(1179 218)">
      <path id="Fill_35" data-name="Fill 35" class="cls-11" d="M1.007.986C1,1,1,1.006.993,1.018c.006-.01.014-.05.014-.032" transform="translate(47 51)"/>
      <path id="Fill_37" data-name="Fill 37" class="cls-11" d="M1,1a.087.087,0,0,0,0,.01C1,1,1.014.971,1,1" transform="translate(47 51)"/>
      <path id="Fill_39" data-name="Fill 39" class="cls-11" d="M1.067.832c-.014.04-.032.078-.048.118.008-.02.016-.036.024-.056-.208.52-.076.182.024-.062" transform="translate(47 51)"/>
      <path id="Fill_41" data-name="Fill 41" class="cls-11" d="M1.022.953,1,1.009c-.058.112.024-.056.024-.056" transform="translate(47 51)"/>
      <path id="Fill_43" data-name="Fill 43" class="cls-11" d="M1,1H1V1Z" transform="translate(47 51)"/>
      <path id="Fill_45" data-name="Fill 45" class="cls-11" d="M1,1S1,1,1,1,1,1,1,1" transform="translate(47 51)"/>
      <path id="Fill_47" data-name="Fill 47" class="cls-11" d="M.99,1.016c-.012.024.056-.092,0,0" transform="translate(47 51)"/>
      <path id="Fill_49" data-name="Fill 49" class="cls-11" d="M1,1,1,1S1,1,1,1" transform="translate(47 51)"/>
      <rect id="back-2" data-name="back" class="cls-3" width="95" height="63" rx="4"/>
      <path id="mountain" class="cls-7" d="M28,0,0,45H56Z" transform="translate(8 18)"/>
      <path id="mountain-2" data-name="mountain" class="cls-6" d="M24.5,0,0,33H49Z" transform="translate(39 30)"/>
      <circle id="sun" class="cls-4" cx="9" cy="9" r="9" transform="translate(65 12)"/>
    </g>
    <g id="image-lg" transform="translate(1637 628)">
      <g id="image-lg-2" data-name="image-lg" transform="translate(142) rotate(180)">
        <path id="Fill_35-2" data-name="Fill 35" class="cls-11" d="M-1.007.986c0,.01.008.02.014.032C-1,1.008-1.007.968-1.007.986" transform="translate(70 -76) rotate(180)"/>
        <path id="Fill_37-2" data-name="Fill 37" class="cls-11" d="M-1,1a.087.087,0,0,1,0,.01C-1,1-1.014.971-1,1" transform="translate(70 -76) rotate(180)"/>
        <path id="Fill_39-2" data-name="Fill 39" class="cls-11" d="M-1.067.832c.014.04.032.078.048.118C-1.027.93-1.035.914-1.043.894c.208.52.076.182-.024-.062" transform="translate(70 -76) rotate(180)"/>
        <path id="Fill_41-2" data-name="Fill 41" class="cls-11" d="M-1.022.953-1,1.009c.058.112-.024-.056-.024-.056" transform="translate(70 -76) rotate(180)"/>
        <path id="Fill_43-2" data-name="Fill 43" class="cls-11" d="M-1,1h0V1Z" transform="translate(70 -76) rotate(180)"/>
        <path id="Fill_45-2" data-name="Fill 45" class="cls-11" d="M-1,1s0,0,0,0,0,0,0,0" transform="translate(70 -76) rotate(180)"/>
        <path id="Fill_47-2" data-name="Fill 47" class="cls-11" d="M-.99,1.016c.012.024-.056-.092,0,0" transform="translate(70 -76) rotate(180)"/>
        <path id="Fill_49-2" data-name="Fill 49" class="cls-11" d="M-1,1l0,0s0,0,0,0" transform="translate(70 -76) rotate(180)"/>
        <rect id="back-3" data-name="back" class="cls-3" width="142" height="94" rx="4" transform="translate(142) rotate(180)"/>
        <path id="mountain-3" data-name="mountain" class="cls-6" d="M-41.055,0,0,67H-82.11Z" transform="translate(11.671 -27) rotate(180)"/>
        <path id="mountain-4" data-name="mountain" class="cls-7" d="M-36.295,0,0,49.054H-72.59Z" transform="translate(58.761 -44.946) rotate(180)"/>
        <circle id="sun-2" data-name="sun" class="cls-4" cx="13.5" cy="13.5" r="13.5" transform="translate(124 -18) rotate(180)"/>
      </g>
    </g>
    <g id="Group_2" data-name="Group 2" transform="translate(1338.239 316)">
      <g id="leg-inner" transform="translate(16.048 170)">
        <path id="Leg" class="cls-2" d="M101,0,52.918,127.227,19.217,221H0L46.326,0Z" transform="translate(33.969)"/>
        <path id="Shoe" class="cls-12" d="M60,37l-.992-16q-8.716,2.549-21.833-2-14.1,9.991-35.512,13.644h0A2,2,0,0,0,.076,35.161L1.448,40H58.016Z" transform="translate(0 184)"/>
      </g>
      <g id="leg-outer" transform="translate(98.017 170)">
        <path id="leg-2" data-name="leg" class="cls-3" d="M64.883,0c.523,43.654.145,102.427,1.363,105.149S142,167.157,142,167.157L132.1,184S43.6,126.934,39.079,119.331,11.826,41.763,0,0Z"/>
        <path id="shoe-2" data-name="shoe" class="cls-12" d="M0,3,.992,19q8.716-2.549,21.833,2,14.1-9.991,35.512-13.644h0a2,2,0,0,0,1.588-2.517L58.553,0H1.985Z" transform="matrix(-0.616, 0.788, -0.788, -0.616, 148.744, 170.23)"/>
      </g>
      <g id="head" transform="translate(108.904)">
        <path id="face" class="cls-13" d="M33.738,34.49c4.608-5.409,7.727-12.037,7.205-19.465C39.442-6.375,9.652-1.667,3.857,9.134s-5.106,38.2,2.383,40.13c2.987.77,9.349-1.116,15.825-5.019L18,73H42Z" transform="translate(1 2)"/>
        <path id="hair" class="cls-14" d="M74.27,53.867A4.811,4.811,0,0,1,77,53a5.15,5.15,0,0,1,5,5,5.937,5.937,0,0,1-3.027,5.547C79.924,65.406,80.88,66.755,82,67c4.322-.437,10-11.18,10-20,0-9.654-7.682-18-22-18-12.869,0-17.749,5.306-18,10,5.515,1.516,15.151,2.1,29,2v1L69,43l-2,6C70.182,48.763,72.456,50.945,74.27,53.867Z" transform="translate(-47 -29)"/>
        <path id="beard" class="cls-15" d="M1.2,7.15A36.732,36.732,0,0,0,0,13.491l5.48,3.986c1.025-2.257,2.349-3.841,4.047-3.841,5.912,0,10.929,3.754,13.523,3.754,1.891,0,1.469-2.367.215-4.121-1.034-1.448-6.07-2.843-6.07-5.088,0-1.267,1.269-1.265,2.373-1.263.851,0,1.606,0,1.606-.577,0-2.2.7-6.341-3.122-6.341C14.185,0,3.1,1.409,1.2,7.15Z" transform="translate(24.339 52.201) rotate(180)"/>
      </g>
      <g id="hand-inner" transform="translate(12.353 62.329)">
        <path id="hand" class="cls-16" d="M2.3,32.525l36.874-14.37a85.864,85.864,0,0,0,23.2-2.8c1.648-.852,3.9-2.867-1.7-3.916S49.216,9.03,48.96,6.953,52.629,3.527,51.774.588Q50.919-2.35,33.9,9.386L0,13.863Z" transform="matrix(-0.966, 0.259, -0.259, -0.966, 70.476, 97.395)"/>
        <path id="arm" class="cls-3" d="M13.491,78.364C38.653,51.574,69.342,34.092,111.2,18.586L101.9,0C58.717,4.072,35.63,7.324,17.531,34.155,12.988,40.889,4.866,64.06,0,76.093Z" transform="matrix(-0.966, 0.259, -0.259, -0.966, 142.695, 75.694)"/>
      </g>
      <g id="body" transform="translate(93.296 59.734)">
        <path id="shirt" class="cls-8" d="M77,114H0S26.163,34.208,26.73,4.472c.019-1.011,1.886-2.792,2.712-2.558C38.5,4.472,48.828,0,48.828,0,67.083,29.358,73.4,65.5,77,114Z"/>
        <path id="jacket" class="cls-2" d="M63.671,138.606H22.614C-11.367,138.606-2.765,69.432,20.3,0h11.93a5.417,5.417,0,0,1,4.941,3.377C53.054,34.024,70.191,94.784,63.671,138.606Z" transform="translate(21.978)"/>
      </g>
      <g id="hand-outer" transform="translate(0 23.936)">
        <path id="hand-2" data-name="hand" class="cls-16" d="M2.3,32.525l36.874-14.37a85.864,85.864,0,0,0,23.2-2.8c1.648-.852,3.9-2.867-1.7-3.916S49.216,9.03,48.96,6.953,52.629,3.527,51.774.588Q50.919-2.35,33.9,9.386L0,13.863Z" transform="matrix(-0.788, -0.616, 0.616, -0.788, 50.627, 65.184)"/>
        <path id="arm-2" data-name="arm" class="cls-2" d="M105,9.042C83.1,9,46.481,13.614,4.077,0L0,20.373c36.445,23.44,73.426,40.712,104.091,30.747C109.222,49.454,101.425,34.939,105,9.042Z" transform="translate(32.296 26.798)"/>
      </g>
    </g>
    <g id="fl-pot" transform="translate(1131 442)">
      <path id="fl-rb" class="cls-1" d="M11.933,84.614c-1.942,0-3.878-.039-5.818-.139-1.479-.077-3.738.228-4.989-.689-1.3-.953-1.21-2.9-1.007-4.28,1.073-7.282,3.693-13.739,9.174-18.9,8.439-7.944,18.113-11.981,29.561-13.778,8.042-1.263,15.465.491,21.385,6.181a88.518,88.518,0,0,0,9.253-25.752,61.405,61.405,0,0,0,.917-13.236c-.092-2.872-.251-5.736-.56-8.594-.134-1.242-.77-3.122-.282-4.3A1.974,1.974,0,0,1,72.942.8c.722.978.59,2.9.738,4.056.246,1.923.474,3.847.637,5.778.265,3.126.46,6.262.446,9.4A69.774,69.774,0,0,1,71,40.856C66.865,53.7,60.158,65.11,49.726,74.064,43.311,79.57,35.97,81.8,27.641,83a111.241,111.241,0,0,1-15.709,1.617" transform="translate(128.144 256.809) rotate(-152)"/>
      <path id="flower" class="cls-4" d="M9.938,35.736C28.6,67.052,50.345,97.374,63.4,131.613c-.526-4.036-1.084-8.067-1.708-12.093-3.313-21.341-7.43-42.526-11.757-63.685-2.2-10.773-4.534-21.507-6.924-32.241C41.727,17.829,40.457,12.061,39.145,6.3c-.318-1.4-.591-3.832-.989-6.3C50.845,41.637,63.081,83.3,72.031,125.942q1.761,8.394,2.993,16.758c.28-1.272.556-2.544.857-3.813A246.4,246.4,0,0,1,91.4,94.374a134.951,134.951,0,0,1,10.825-19.648c2.608-3.863,8.757-8.455,11.136-12.412-13.01,23.861-17.707,53.717-25.219,79.659-1.833,6.331-3.678,12.651-5.486,18.982,11.328-22.718,28.9-41.384,53.341-49.473-29.58,19.544-47.322,53.771-59.278,88.777-.039.415-.086.83-.127,1.246,3.518-6.677,7.95-12.716,13.956-16.946,12.855-9.055,27.116-6.417,39.586,1.35-9.787-6.221-27.474-.556-35.709,5.767-5.9,4.526-10.933,10.6-15.308,16.523-1.048,1.42-2.479,3.077-3.989,4.845A218.405,218.405,0,0,1,64.672,254c.807-3.889.223-10.108.447-13.007.024-.314.044-.628.068-.941q-1.114,4.449-2.152,8.784a120.22,120.22,0,0,0,2.7-17.061q.225-3.743.451-7.487-.074-7.1-.574-14.253c-1.17-4.629-2.48-8.994-3.56-12.625a163.194,163.194,0,0,0-16.646-37.36,147.491,147.491,0,0,0-22.966-29.116c-4.78-4.717-9.783-9.21-14.716-13.765-1.784-1.647-4.972-5.7-7.729-7.806,20.08,11.071,40.749,23.047,55.4,40.884q-2.576-9.892-5.556-19.468C39.831,98.454,27.191,64.953,9.938,35.736Z"/>
      <path id="Fill_16" data-name="Fill 16" class="cls-8" d="M8.14,0C6.815,0,5.494.027,4.171.1,3.162.148,1.621-.061.768.568-.119,1.221-.058,2.557.081,3.5.813,8.493,2.6,12.919,6.339,16.456,12.1,21.9,18.695,24.668,26.5,25.9c5.486.866,10.55-.336,14.588-4.237A60.868,60.868,0,0,1,47.4,39.315a42.292,42.292,0,0,1,.626,9.073c-.063,1.968-.171,3.932-.382,5.891-.091.851-.526,2.14-.192,2.944a1.343,1.343,0,0,0,2.3.231c.493-.67.4-1.987.5-2.78.168-1.318.323-2.637.434-3.961.181-2.143.314-4.292.3-6.444a48.036,48.036,0,0,0-2.567-14.274c-2.82-8.8-7.4-16.625-14.512-22.763-4.376-3.774-9.383-5.3-15.065-6.123A75.529,75.529,0,0,0,8.14,0" transform="translate(15 147)"/>
      <path id="Fill_18" data-name="Fill 18" class="cls-8" d="M32.571,0C18.272,0,8.642,11.524,4.089,23.5c-1.716,4.515-2.119,9.472-2.78,14.213-.212,1.521-.134,3.839-.751,5.195-.224.491-.738.668-.492,1.338a1.086,1.086,0,0,0,.879.734c.9.166,2.171-.814,2.942-1.2,6.4-3.208,10.6-8.168,14.027-14.236a60.584,60.584,0,0,0,5.544-11.8,40.769,40.769,0,0,0,1.484-7.8,29.682,29.682,0,0,0,.2-3.122,6.3,6.3,0,0,0-.829-2.468c4.771-1.806,10.156-2.3,14.989-.427a19.209,19.209,0,0,1,10.262,9.279,17.7,17.7,0,0,1,1.26,3.42A11.772,11.772,0,0,0,51.4,19.1c.893,1.687,2.771.559,2.59-1.011A20.315,20.315,0,0,0,47.775,6.263,22.349,22.349,0,0,0,32.571,0" transform="translate(11 182)"/>
      <path id="pot" class="cls-7" d="M0,0C0,35.9,2.843,65,41,65S82,35.9,82,0" transform="translate(33 203)"/>
    </g>
  </g>
</svg>
