<svg xmlns="http://www.w3.org/2000/svg" viewBox="0 0 700 700"><defs><style>.cls-1{fill:#03243a;}.cls-2{fill:#59eb78;}.cls-3{fill:#095a7c;}.cls-4{fill:#0b6b84;}.cls-5{fill:#abff4f;}.cls-6{fill:#c5cfd6;}.cls-7{fill:#064874;}.cls-8{fill:#04314e;}.cls-10,.cls-9{fill:#06d6a0;}.cls-10,.cls-11,.cls-12{fill-rule:evenodd;}.cls-11,.cls-14{fill:#b28b67;}.cls-12,.cls-13{fill:#183059;}</style></defs><g id="ground"><path id="bg" class="cls-1" d="M11.29,543.15c-9.65,65.33,224.37,107.93,425.8,78.2,52.17-7.7,97-21.2,133.09-38C673.74,535.1,706,459.47,634.81,413.62,538.69,351.75,20.94,477.83,11.29,543.15Z"/></g><g id="leaves"><path id="lf-five" class="cls-2" d="M559.78,312.6c.51-.47,1.05-.93,1.61-1.37a30.11,30.11,0,0,1,4.44-2.88c1.66-.89,3.4-1.69,5.09-2.46l.08,0c1.44-.65,3-1.34,4.91-2.15l2.74-1.15.24-.12c.23-.13.46-.26.58-.15a.39.39,0,0,1,.06.15A29.91,29.91,0,0,1,584,301c.55-.15,1.12-.3,1.66-.46,2.37-.7,4.89-1.42,7.48-1.95q2.73-.57,5.51-.87a29.52,29.52,0,0,1,3.26-.13,4.81,4.81,0,0,0,.62,0c.89,0,2.38-.1,2.72.23a8,8,0,0,0-2.31.5c-.3.09-.53.16-.61.17-1.28.26-2.59.43-3.82.58a60.42,60.42,0,0,0-7.06,1.29.21.21,0,0,0,.08.11,5.05,5.05,0,0,0,1.64.64,6,6,0,0,1,.6.18,23.57,23.57,0,0,1,3,1.41,25.41,25.41,0,0,1,5,3.41,5.2,5.2,0,0,0-1.61-.59,6.32,6.32,0,0,1-.83-.24c-.92-.36-1.82-.77-2.69-1.21s-1.67-.95-2.35-1.38c-.24-.16-.53-.38-.84-.62a6.45,6.45,0,0,0-2-1.23.42.42,0,0,0-.13.09c-.11.09-.29.24-.44.21a1.52,1.52,0,0,1-.49-.35l-.15-.12a5.26,5.26,0,0,0-2.13.52c-.3.12-.58.23-.82.3-1.47.42-3,.87-4.42,1.3l-1.64.49-.42.1c-.45.11-.81.19-.91.59s.38,1.33.7,1.91c.09.15.16.27.21.37a13.26,13.26,0,0,0,2.49,3.45,13.49,13.49,0,0,0,1.54,1.29,23,23,0,0,0,10.85,4,79.88,79.88,0,0,0,22.27-.3,54.75,54.75,0,0,0,10.58-2.84,48.21,48.21,0,0,0,9.85-5.11,35.36,35.36,0,0,0,8-6.94,12.34,12.34,0,0,0,2.37-4.59,8.49,8.49,0,0,0-.36-5.22,1.14,1.14,0,0,0,1.07-.63.41.41,0,0,0,0-.49.69.69,0,0,0-.5-.15c-.68,0-.86,0-1.13-.3l-.24-.25-.13-.15a8.33,8.33,0,0,1-.76-1c-.17-.24-.34-.5-.52-.73a25,25,0,0,0-2.06-2.3c-.33-.33-.66-.64-1-.93a31.09,31.09,0,0,0-8.12-5c-6.16-2.59-11.49-3.95-16.28-4.15A55,55,0,0,0,605.22,275a60.93,60.93,0,0,0-12.73,4.14,30.8,30.8,0,0,0-6.72,4,18.23,18.23,0,0,0-6.79,14c0,.34,0,.67.1,1a7.09,7.09,0,0,1,.1,1.22v.13c0,.75,0,.75-.57.95l-.58.22-3.85,1.63a100.54,100.54,0,0,0-9.89,4.71,28.21,28.21,0,0,0-3,2l-.49.34c-1.13.78-3.23,2.23-3.35,3.2a1.06,1.06,0,0,0,.16.86C558.07,313.89,559.37,313,559.78,312.6Zm22.72-19c-.13.46-.27.93-.33,1.16-.26,1-.5,2.14-.73,3.37a19.14,19.14,0,0,1,1.38-5.67S582.67,293,582.5,293.57Zm20.1-2c0,.55-2.37,2.53-4.08,4a18.39,18.39,0,0,0-1.67,1.5h0a13.7,13.7,0,0,1,2.89-3.71c.36-.31,2.6-2.1,2.83-1.88A.2.2,0,0,1,602.6,291.55Z"/><path id="lf-four" class="cls-3" d="M98.18,431c-7.48,0-14.13,1-21,3.94a93.84,93.84,0,0,0-16.63,9.66c-7.4,5.2-13.23,11.25-17.31,19.27-2.44,4.79-4.22,11.56-2.59,16.79,1.93,6.15,7.23,11.28,14.2,10.2,4.32-.67,8.27-3.53,11.55-6.22A43.69,43.69,0,0,0,76,473.27c4.23-7,6.71-14.92,10.3-22.24,1.7-3.47,3.35-7,5.39-10.27a16.62,16.62,0,0,1,3.62-4.47c.82-.65,4.28-1.77,3-3.23,19.39.26,36.56,15.15,40.29,33.58.34,1.72.62,3.45.9,5.18.18,1.09.11,5.12,1.08,5.81,2.15,1.54,1.25-3.13,1.16-3.8-.24-1.74-.5-3.48-.76-5.21a43.42,43.42,0,0,0-12.65-24.94C120.31,436,109.5,431,98.18,431"/><path id="lf-three" class="cls-2" d="M24,336.38C28,333.7,33.2,333,37.92,333c18.44,0,35.77,6.84,50.74,17a119,119,0,0,1,22,20.1,58.87,58.87,0,0,1,9.43,14A47.81,47.81,0,0,1,123.54,395a110.85,110.85,0,0,1,1.95,13.81c.12,1.82,1.18,11.48-1.85,11.64a3.75,3.75,0,0,1,0,.67c6.57,10.27,10.63,22.31,14.4,33.73a230.58,230.58,0,0,1,8.09,30.22,330.29,330.29,0,0,1,4.91,41c.17,3,.28,5.9.38,8.85q.14,3.78.25,7.56c.1,2.82.59,6.07.14,8.88-.39,2.44-2.5,2.07-2.6-.36-.11-2.94-.09-5.88-.22-8.82q-.26-5.85-.54-11.7a273.82,273.82,0,0,0-15.51-79.38,185.46,185.46,0,0,0-13.48-29.74,209.35,209.35,0,0,0-16.54-24.17c-5.77-7.38-11.76-14.59-18.82-20.84a144.12,144.12,0,0,0-18.5-13.61c-8.23-5.22-16.44-10.32-25.35-14.33-4.64-2.08-9.36-3.95-14-5.95-.84-.36-1.74-.71-2.54-1.13-2.7-1.39-1.81-3.48.33-4.93"/><path id="lf-one" class="cls-4" d="M21.78,234.33a7.57,7.57,0,0,1,2.38-.64,39,39,0,0,1,7.47-.69,138.38,138.38,0,0,1,23.07,2.07c4.8.83,10.61,3.63,15.39,2.11,8.32-2.64,16.74-2.51,24.63,1.26,7.22,3.45,12.7,10,15.9,17.08a43.7,43.7,0,0,1,3,7.65c.23.54.46,1.09.67,1.64.58,1.57,1.1,3.17,1.59,4.78.2.68.73,2.19.11,2.48a47.4,47.4,0,0,1,2.6,5.66c2.12,5.65,4.45,11.85,5.19,17.84a28.08,28.08,0,0,1,0,6.67c-.13,1.1-.08,3.31-.82,4.14-1.58,1.77-2.4-.71-2.22-1.89,1.36-9-1.27-17.46-4.38-25.93a53.33,53.33,0,0,0-9-15,37.74,37.74,0,0,0-10.33-9,160.64,160.64,0,0,0-15.72-7.8c-3.5-1.59-7-3.13-10.61-4.5a10.81,10.81,0,0,0-2.95-1.09c-1.88,0-4.54,1.38-6.35,1.9-6,1.7-12,3.86-18.17,4.73a23.36,23.36,0,0,1-11.35-1.38,10.65,10.65,0,0,1-1.79-1,26.09,26.09,0,0,1-7.6-4.3,30.06,30.06,0,0,1-3.56-3.84,2,2,0,0,1-.47-1.27c-.25-.13-.41-.27-.45-.45-.27-1.28,2.19-1.31,3.76-1.23"/></g><g id="leaf-two"><path id="lf-two" class="cls-5" d="M31,270.66A47.52,47.52,0,0,1,41.67,270,66.19,66.19,0,0,1,90.51,293.2c10.14,12,12.93,26.92,14.93,42,.2,1.5.28,3,.4,4.49,0,.32.06.6.1.88a1.93,1.93,0,0,1,.73,2.43,99.69,99.69,0,0,1,4.46,11.71c3.71,11.82,7.48,23.86,5.16,36.29a175.7,175.7,0,0,0-3.05-20.56c-.08-.39-.17-.77-.25-1.15l0-.12a45.27,45.27,0,0,0-1.88-6l0-.06c-.1-.26-.21-.52-.32-.78-.21-.53-.44-1.06-.68-1.59-.08-.18-.15-.36-.23-.55-1.11-2.72-1.58-5.8-2.58-8.62-.24-.64-.49-1.28-.75-1.91l0-.11c-.71-1.71-1.49-3.4-2.31-5.08a6.11,6.11,0,0,1-1.08-1.93,12.17,12.17,0,0,1-.89-1.72c-.48-.94-1-1.88-1.46-2.81h0L99.3,335.3l-.32-.59-.53-.93c-1.63-2.93-3.36-5.79-5.16-8.61-.64-1-2.17-2.46-2.46-3.59a.5.5,0,0,1,0-.12A64.5,64.5,0,0,0,77,306.92c.65.7,2,3.09,2.4,3.57,1.12,1.44,2.34,2.79,3.56,4.16a89,89,0,0,1,6.21,7.62,147.13,147.13,0,0,1,9.28,15.24l.08.09c1.42,1.75,2.32,4.4,3.34,6.4-4.05-1.87-8.52-3.1-12.67-4.76a102.78,102.78,0,0,1-12.06-5.68,134,134,0,0,1-15.42-9.82A61,61,0,0,1,47.3,310.48c-4.91-5.94-9.41-11.92-12.2-19.13a57.22,57.22,0,0,1-3.08-11c0-.17-.07-.34-.1-.53a35.53,35.53,0,0,1-1.73-3.95c-.78-2.14-2.61-4.5.83-5.25"/></g><g id="image-top"><g id="image-sm"><path id="Fill_35" data-name="Fill 35" class="cls-6" d="M582,115l0,0s0,0,0,0"/><path id="Fill_37" data-name="Fill 37" class="cls-6" d="M582,115h0s0,0,0,0"/><path id="Fill_39" data-name="Fill 39" class="cls-6" d="M581.93,114.83l.05.12a.14.14,0,0,1,0-.06c.2.52.07.19,0-.06"/><path id="Fill_41" data-name="Fill 41" class="cls-6" d="M582,115l0,.06c.06.11,0-.06,0-.06"/><path id="Fill_47" data-name="Fill 47" class="cls-6" d="M582,115h0"/><rect id="back-2" class="cls-4" x="535.01" y="63" width="95" height="63" rx="4"/><path id="mountain" class="cls-7" d="M594,81l28,45H566Z"/><path id="mountain-2" class="cls-8" d="M566.5,93,591,126H542Z"/><circle id="sun" class="cls-5" cx="556" cy="84" r="9"/></g></g><g id="phone"><rect id="Container" class="cls-7" x="415.01" y="115" width="159" height="302" rx="8"/><circle id="Touch" class="cls-5" cx="495" cy="383" r="15"/><g id="Camera"><circle id="Lens" class="cls-5" cx="508" cy="133" r="2"/><path id="Sensor" class="cls-5" d="M499,131H482a2,2,0,0,0-2,2h0a2,2,0,0,0,2,2h17a2,2,0,0,0,2-2h0A2,2,0,0,0,499,131Z"/></g><g id="Rows"><g id="Row"><rect id="Background" class="cls-9" x="429.01" y="143" width="131" height="54" rx="4"/><g id="Text"><rect id="Name" class="cls-5" x="448.01" y="159" width="73" height="8" rx="3"/><rect id="Name-2" class="cls-5" x="472.01" y="173" width="49" height="8" rx="3"/></g><circle id="Avatar" class="cls-4" cx="539" cy="170" r="12"/></g><g id="Row-2"><rect id="Background-2" class="cls-9" x="429.01" y="205" width="131" height="42" rx="4"/><g id="Text-2"><rect id="Name-3" class="cls-5" x="448.01" y="218" width="73" height="6" rx="3"/><rect id="Name-4" class="cls-5" x="472.01" y="228" width="49" height="6" rx="3"/></g><circle id="Avatar-2" class="cls-4" cx="539" cy="226" r="12"/></g><g id="Row-3"><rect id="Background-3" class="cls-9" x="429.01" y="255" width="131" height="42" rx="4"/><g id="Text-3"><rect id="Name-5" class="cls-5" x="448.01" y="268" width="73" height="6" rx="3"/><rect id="Name-6" class="cls-5" x="472.01" y="278" width="49" height="6" rx="3"/></g><circle id="Avatar-3" class="cls-4" cx="539" cy="276" r="12"/></g><g id="Row-4"><rect id="Background-4" class="cls-9" x="429.01" y="305" width="131" height="42" rx="4"/><g id="Text-4"><rect id="Name-7" class="cls-5" x="448.01" y="318" width="73" height="6" rx="3"/><rect id="Name-8" class="cls-5" x="472.01" y="328" width="49" height="6" rx="3"/></g><circle id="Avatar-4" class="cls-4" cx="539" cy="326" r="12"/></g></g></g><g id="web"><rect id="back" class="cls-8" x="107.01" y="166" width="335" height="346" rx="8"/><rect id="profile-bg" class="cls-4" x="123.01" y="209" width="70" height="81" rx="8"/><g id="profile"><circle id="Avatar-5" class="cls-9" cx="158" cy="240" r="16"/><path id="Name-9" class="cls-5" d="M180,260H136a3,3,0,0,0-3,3h0a3,3,0,0,0,3,3h44a3,3,0,0,0,3-3h0A3,3,0,0,0,180,260Z"/><path id="Name-10" class="cls-5" d="M172,270H144a3,3,0,0,0-3,3h0a3,3,0,0,0,3,3h28a3,3,0,0,0,3-3h0A3,3,0,0,0,172,270Z"/></g><path id="header" class="cls-4" d="M434,166H115a8,8,0,0,0-8,8v19H442V174A8,8,0,0,0,434,166Z"/><g id="buttons"><circle id="buttons-2" class="cls-5" cx="429" cy="180" r="4"/><circle id="buttons-3" class="cls-5" cx="417" cy="180" r="4"/><circle id="buttons-4" class="cls-5" cx="405" cy="180" r="4"/></g><g id="sidebar"><rect id="Background-5" class="cls-4" x="123.01" y="298" width="70" height="194" rx="8"/><g id="Rows-2"><rect id="Data" class="cls-9" x="141.01" y="316" width="34" height="26" rx="4"/><rect id="Data-2" class="cls-9" x="141.01" y="350" width="34" height="25" rx="4"/><rect id="Data-3" class="cls-9" x="141.01" y="383" width="34" height="25" rx="4"/><rect id="Data-4" class="cls-9" x="141.01" y="449" width="34" height="25" rx="4"/><rect id="Data-5" class="cls-9" x="141.01" y="416" width="34" height="25" rx="4"/></g></g><g id="row-six"><rect id="Container-5" class="cls-7" x="201.01" y="453" width="225" height="39" rx="4"/><g id="Text_Stuff-4" data-name="Text Stuff-4"><path id="Label-7" class="cls-9" d="M414.08,465H252.93a3,3,0,0,0-2.93,3h0a3,3,0,0,0,2.93,3H414.08a3,3,0,0,0,2.92-3h0A3,3,0,0,0,414.08,465Z"/><path id="Label-8" class="cls-9" d="M415.44,474h-109a3,3,0,0,0-3,3h0a3,3,0,0,0,3,3h109a3,3,0,0,0,3-3h0A3,3,0,0,0,415.44,474Z"/></g><g id="Check-4"><circle id="Background-9" class="cls-5" cx="225.05" cy="472.5" r="7"/><circle id="Indicator-4" class="cls-8" cx="225.05" cy="472.5" r="3"/></g></g><g id="row-five"><rect id="Container-6" class="cls-7" x="201.01" y="406" width="225" height="39" rx="4"/><g id="Text_Stuff-5" data-name="Text Stuff-5"><path id="Label-9" class="cls-9" d="M414.08,418H252.93a3,3,0,0,0-2.93,3h0a3,3,0,0,0,2.93,3H414.08a3,3,0,0,0,2.92-3h0A3,3,0,0,0,414.08,418Z"/><path id="Label-10" class="cls-9" d="M415.44,427h-109a3,3,0,0,0-3,3h0a3,3,0,0,0,3,3h109a3,3,0,0,0,3-3h0A3,3,0,0,0,415.44,427Z"/></g><g id="Check-5"><circle id="Background-10" class="cls-5" cx="225.05" cy="425.5" r="7"/><circle id="Indicator-5" class="cls-8" cx="225.05" cy="425.5" r="3"/></g></g><g id="row-four"><rect id="Container-7" class="cls-7" x="201.01" y="359" width="225" height="39" rx="4"/><g id="Text_Stuff-6" data-name="Text Stuff-6"><path id="Label-11" class="cls-9" d="M414.08,371H252.93a3,3,0,0,0-2.93,3h0a3,3,0,0,0,2.93,3H414.08a3,3,0,0,0,2.92-3h0A3,3,0,0,0,414.08,371Z"/><path id="Label-12" class="cls-9" d="M415.44,380h-109a3,3,0,0,0-3,3h0a3,3,0,0,0,3,3h109a3,3,0,0,0,3-3h0A3,3,0,0,0,415.44,380Z"/></g><g id="Check-6"><circle id="Background-11" class="cls-5" cx="225.05" cy="378.5" r="7"/><circle id="Indicator-6" class="cls-8" cx="225.05" cy="378.5" r="3"/></g></g><g id="row-three"><rect id="Container-4" class="cls-7" x="201.01" y="312" width="225" height="39" rx="4"/><g id="Text_Stuff-3" data-name="Text Stuff-3"><path id="Label-5" class="cls-9" d="M414.08,324H252.93a3,3,0,0,0-2.93,3h0a3,3,0,0,0,2.93,3H414.08a3,3,0,0,0,2.92-3h0A3,3,0,0,0,414.08,324Z"/><path id="Label-6" class="cls-9" d="M415.44,333h-109a3,3,0,0,0-3,3h0a3,3,0,0,0,3,3h109a3,3,0,0,0,3-3h0A3,3,0,0,0,415.44,333Z"/></g><g id="Check-3"><circle id="Background-8" class="cls-5" cx="225.05" cy="331.5" r="7"/><circle id="Indicator-3" class="cls-8" cx="225.05" cy="331.5" r="3"/></g></g><g id="row-two"><rect id="Container-3" class="cls-7" x="201.01" y="265" width="225" height="39" rx="4"/><g id="Text_Stuff-2" data-name="Text Stuff-2"><path id="Label-3" class="cls-9" d="M414.08,277H252.93a3,3,0,0,0-2.93,3h0a3,3,0,0,0,2.93,3H414.08a3,3,0,0,0,2.92-3h0A3,3,0,0,0,414.08,277Z"/><path id="Label-4" class="cls-9" d="M415.44,286h-109a3,3,0,0,0-3,3h0a3,3,0,0,0,3,3h109a3,3,0,0,0,3-3h0A3,3,0,0,0,415.44,286Z"/></g><g id="Check-2"><circle id="Background-7" class="cls-5" cx="225.05" cy="284.5" r="7"/><circle id="Indicator-2" class="cls-8" cx="225.05" cy="284.5" r="3"/></g></g></g><g id="web-row"><g id="row-one"><rect id="Container-2" class="cls-7" x="201.01" y="210" width="225" height="47" rx="4"/><g id="Text_Stuff" data-name="Text Stuff"><rect id="Label" class="cls-9" x="250.01" y="224" width="167" height="7" rx="3"/><rect id="Label-2" class="cls-9" x="305.01" y="236" width="112" height="7" rx="3"/></g><g id="Check"><circle id="Background-6" class="cls-5" cx="225.05" cy="233.5" r="7"/><circle id="Indicator" class="cls-8" cx="225.05" cy="233.5" r="3"/></g></g></g><g id="images"><g id="image-lg"><g id="image-lg-2"><path id="Fill_35-2" data-name="Fill 35-2" class="cls-6" d="M107,583l0,0s0,0,0,0"/><path id="Fill_37-2" data-name="Fill 37-2" class="cls-6" d="M107,583h0s0,0,0,0"/><path id="Fill_39-2" data-name="Fill 39-2" class="cls-6" d="M107.07,582.83l0,.12s0,0,0-.06c-.21.52-.07.19,0-.06"/><path id="Fill_41-2" data-name="Fill 41-2" class="cls-6" d="M107,583l0,.06c-.06.11,0-.06,0-.06"/><path id="Fill_47-2" data-name="Fill 47-2" class="cls-6" d="M107,583h0"/><rect id="back-3" class="cls-4" x="36.01" y="506" width="142" height="94" rx="4"/><path id="mountain-3" class="cls-8" d="M88.73,533,47.67,600h82.11Z"/><path id="mountain-4" class="cls-7" d="M131.06,551l-36.3,49h72.59Z"/><circle id="sun-2" class="cls-5" cx="146.5" cy="537.5" r="13.5"/></g></g></g><g id="person"><g id="leg-inner"><path id="Leg" class="cls-3" d="M451.26,371,403.17,498.23,369.47,592H350.26l46.32-221Z"/><path id="Shoe" class="cls-10" d="M376.29,592l-1-16q-8.71,2.55-21.83-2-14.1,10-35.51,13.64h0a2,2,0,0,0-1.64,2.31c0,.07,0,.14.05.21l1.37,4.84H374.3Z"/></g><g id="leg-outer"><path id="leg-2" class="cls-4" d="M463.14,371c.52,43.65.14,102.43,1.36,105.15s75.76,62,75.76,62L530.36,555s-88.5-57.07-93-64.67S410.08,412.76,398.26,371Z"/><path id="shoe-2" class="cls-10" d="M544.64,539.38l-13.22-9.07q-3.36,8.45-15,16-.81,17.26-11.11,36.38h0a2,2,0,0,0,.81,2.71.82.82,0,0,0,.19.09l4.66,1.9,34.83-44.58Z"/></g><g id="head"><path id="face" class="cls-11" d="M443.88,237.49c4.61-5.41,7.73-12,7.21-19.46-1.5-21.4-31.3-16.7-37.09-5.9s-5.11,38.2,2.38,40.13c3,.77,9.35-1.11,15.83-5L428.14,276h24Z"/><path id="hair" class="cls-12" d="M436.28,225.87A4.84,4.84,0,0,1,439,225a5.16,5.16,0,0,1,5,5,6,6,0,0,1-3,5.55c.95,1.86,1.91,3.2,3,3.45,4.32-.44,10-11.18,10-20,0-9.65-7.69-18-22-18-12.87,0-17.75,5.31-18,10,5.51,1.52,15.15,2.1,29,2v1l-12,1-2,6C432.19,220.76,434.46,222.94,436.28,225.87Z"/><path id="beard" class="cls-13" d="M432.29,246.05a37.91,37.91,0,0,0,1.2-6.34l-5.48-4c-1,2.26-2.35,3.84-4.05,3.84-5.91,0-10.93-3.75-13.52-3.75-1.89,0-1.47,2.37-.22,4.12,1,1.45,6.07,2.84,6.07,5.09,0,1.27-1.27,1.26-2.37,1.26-.85,0-1.61,0-1.61.58,0,2.2-.7,6.34,3.12,6.34S430.39,251.79,432.29,246.05Z"/></g><g id="hand-inner"><path id="hand" class="cls-14" d="M372.43,329.9l-31.9,23.43a86.22,86.22,0,0,0-21.69,8.72c-1.37,1.25-3,3.78,2.66,3.34s11.69-.64,12.48,1.3-2.66,4.26-1.07,6.88q1.59,2.61,15-13.13l31.59-13.11Z"/><path id="arm" class="cls-4" d="M422,266.82c-17.37,32.4-42.48,57.24-78.9,83.06l13.8,15.54c40.66-15.12,62.12-24.24,72.65-54.84,2.64-7.69,4.49-32.18,6.07-45.06Z"/></g><g id="body"><path id="shirt" class="cls-9" d="M470.54,375h-77s26.16-79.79,26.73-109.53c0-1,1.88-2.79,2.71-2.56,9.06,2.56,19.38-1.91,19.38-1.91C460.62,290.36,466.94,326.5,470.54,375Z"/><path id="jacket" class="cls-3" d="M479.28,400H438.11c-34.08,0-25.45-69.37-2.33-139h12a5.41,5.41,0,0,1,4.95,3.39C468.63,295.12,485.82,356.05,479.28,400Z"/></g><g id="hand-outer"><path id="hand-2" class="cls-14" d="M369.08,263.07l-37.91-11.39a86,86,0,0,0-20-12.08c-1.82-.35-4.84-.14-1.07,4.13s7.54,9,6.47,10.75-5,.44-6.14,3.28q-1.14,2.85,19.5,4.08L359.4,279.2Z"/><path id="arm-2" class="cls-3" d="M437.53,260.78c-21.9,0-58.51,4.57-100.92-9l-4.08,20.38C369,295.55,406,312.82,436.63,302.86,441.76,301.19,434,286.67,437.53,260.78Z"/></g></g><g id="charts"><g id="chart-sm"><path id="lg-4" class="cls-9" d="M224.11,130.5a8.08,8.08,0,0,0,12.5-.78,8,8,0,0,0,1.1-7.23A8.08,8.08,0,0,0,230,117V102a23,23,0,1,1,0,46,22.88,22.88,0,0,1-16.85-7.28Z"/><path id="md-4" class="cls-5" d="M230,102v15a8,8,0,0,0-8,8H207A23.06,23.06,0,0,1,230,102Z"/><path id="sm-3" class="cls-4" d="M221.93,125a8,8,0,0,0,3.07,6.29L215.8,143a22.81,22.81,0,0,1-8.8-18Z"/></g><g id="pie"><g id="pie-2"><path id="md-2" class="cls-5" d="M636,233.26A20.19,20.19,0,0,0,616,213v20.26L629.67,248A20.07,20.07,0,0,0,636,233.26Z"/><path id="lg-2" class="cls-4" d="M616.53,233h-20.2a20,20,0,0,0,5.5,13.67,20.37,20.37,0,0,0,14.7,6.33,20.62,20.62,0,0,0,13.8-5.44Z"/><path id="xl-2" class="cls-7" d="M616,213a19.77,19.77,0,0,0-7.77,1.58,20.2,20.2,0,0,0-6.36,4.3,20,20,0,0,0-4.3,6.36A19.68,19.68,0,0,0,596,233h20Zm20,10a18.3,18.3,0,0,0-10-10l-8,18h0Z"/></g></g><g id="graph"><path id="sm" class="cls-3" d="M189,123h0a3,3,0,0,0-3,3v19a3,3,0,0,0,3,3h0a3,3,0,0,0,3-3V126A3,3,0,0,0,189,123Z"/><path id="xl" class="cls-9" d="M175,107h0a3,3,0,0,0-3,3v35a3,3,0,0,0,3,3h0a3,3,0,0,0,3-3V110A3,3,0,0,0,175,107Z"/><path id="lg" class="cls-3" d="M161,99h0a3,3,0,0,0-3,3v43a3,3,0,0,0,3,3h0a3,3,0,0,0,3-3V102A3,3,0,0,0,161,99Z"/><path id="md" class="cls-4" d="M147,107h0a3,3,0,0,0-3,3v35a3,3,0,0,0,3,3h0a3,3,0,0,0,3-3V110A3,3,0,0,0,147,107Z"/><path id="xxl" class="cls-5" d="M133,91h0a3,3,0,0,0-3,3v51a3,3,0,0,0,3,3h0a3,3,0,0,0,3-3V94A3,3,0,0,0,133,91Z"/></g></g><g id="chart-large"><g id="chart-lg"><path id="lg-3" class="cls-4" d="M33.34,406.18A10.52,10.52,0,1,0,41,388.5V369a30,30,0,0,1,0,60h0a29.66,29.66,0,0,1-21.9-9.5Z"/><path id="md-3" class="cls-3" d="M41,369v19.5A10.5,10.5,0,0,0,30.51,399H11A30.09,30.09,0,0,1,41,369Z"/><path id="sm-2" class="cls-9" d="M30.9,399a10.62,10.62,0,0,0,4.1,8.39L22.74,423A30.4,30.4,0,0,1,11,399Z"/></g></g><g id="flower-pot"><path id="fp-main" class="cls-5" d="M674.06,355.74c-18.66,31.31-40.41,61.63-53.46,95.87.53-4,1.08-8.06,1.71-12.09,3.31-21.34,7.43-42.53,11.75-63.68,2.2-10.78,4.54-21.51,6.93-32.25,1.28-5.76,2.55-11.53,3.86-17.29.32-1.4.6-3.83,1-6.3-12.69,41.64-24.92,83.3-33.87,125.94q-1.76,8.4-3,16.76c-.28-1.27-.56-2.54-.86-3.81a246.93,246.93,0,0,0-15.52-44.52,135.89,135.89,0,0,0-10.82-19.64c-2.61-3.87-8.76-8.46-11.14-12.42,13,23.87,17.71,53.72,25.22,79.66,1.83,6.33,3.68,12.65,5.48,19C590,458.24,572.44,439.57,548,431.48c29.58,19.55,47.33,53.77,59.28,88.78,0,.41.09.83.13,1.24-3.52-6.67-7.95-12.71-14-16.94-12.85-9.06-27.11-6.42-39.58,1.35,9.78-6.22,27.47-.56,35.7,5.77,5.9,4.52,10.94,10.6,15.31,16.52,1,1.42,2.48,3.08,4,4.84a218.26,218.26,0,0,0,10.46,41c-.81-3.89-.22-10.11-.45-13,0-.31,0-.63-.07-.94.75,3,1.46,5.9,2.16,8.79a118.66,118.66,0,0,1-2.7-17.07c-.15-2.49-.31-5-.46-7.48q.08-7.11.58-14.26c1.17-4.62,2.48-9,3.56-12.62a163.44,163.44,0,0,1,16.64-37.36,147.6,147.6,0,0,1,23-29.12c4.78-4.71,9.78-9.21,14.72-13.76,1.78-1.65,5-5.7,7.73-7.81-20.08,11.07-40.75,23.05-55.4,40.89q2.57-9.9,5.55-19.47C644.17,418.45,656.81,385,674.06,355.74Z"/><path id="fp-lb" class="cls-9" d="M660.86,467c1.32,0,2.65,0,4,.1,1,0,2.55-.16,3.4.47s.83,2,.69,2.93c-.73,5-2.52,9.42-6.26,13-5.76,5.44-12.35,8.21-20.16,9.44-5.49.87-10.55-.34-14.59-4.24a61.07,61.07,0,0,0-6.31,17.65,43.18,43.18,0,0,0-.63,9.08c.07,2,.18,3.93.39,5.89.09.85.52,2.14.19,2.94a1.35,1.35,0,0,1-1.79.66,1.32,1.32,0,0,1-.51-.43c-.49-.67-.4-2-.5-2.78-.17-1.31-.33-2.63-.44-4-.18-2.14-.31-4.29-.3-6.44A48.17,48.17,0,0,1,620.58,497c2.82-8.81,7.4-16.63,14.51-22.77,4.38-3.77,9.39-5.3,15.07-6.12a75.22,75.22,0,0,1,10.7-1.11"/><path id="fp-lt" class="cls-9" d="M640.43,502c14.3,0,23.93,11.52,28.48,23.5,1.72,4.51,2.12,9.47,2.78,14.21.21,1.52.13,3.84.75,5.2.23.49.74.67.49,1.34a1.09,1.09,0,0,1-.88.73c-.9.17-2.17-.81-2.94-1.2-6.4-3.21-10.6-8.17-14-14.24a60.24,60.24,0,0,1-5.55-11.8,40.38,40.38,0,0,1-1.48-7.8,29.36,29.36,0,0,1-.2-3.12,6.24,6.24,0,0,1,.83-2.47c-4.77-1.8-10.16-2.3-15-.42a19.19,19.19,0,0,0-10.26,9.28,17.32,17.32,0,0,0-1.26,3.42,12.32,12.32,0,0,1-.58,2.47c-.89,1.69-2.77.56-2.59-1a20.36,20.36,0,0,1,6.21-11.83A22.38,22.38,0,0,1,640.43,502"/><path id="pot" class="cls-7" d="M651,523c0,35.9-2.84,65-41,65s-41-29.1-41-65"/></g><g id="fp-rb"><path id="fp-rb-2" data-name="fp-rb" class="cls-2" d="M526.67,496.5c-1.72.91-3.41,1.85-5.07,2.85-1.27.76-3.41,1.55-4.08,2.95s.29,3.13,1.12,4.25c4.36,5.93,9.71,10.4,17,12.38,11.18,3.06,21.62,2.08,32.57-1.71,7.69-2.66,13.42-7.69,16-15.5a88.69,88.69,0,0,1,20.26,18.4,61.76,61.76,0,0,1,7,11.25c1.27,2.58,2.47,5.19,3.54,7.86.47,1.15.79,3.11,1.77,3.92a2,2,0,0,0,2.76-.4,1.85,1.85,0,0,0,.37-.89c.18-1.2-.84-2.84-1.25-3.93-.68-1.81-1.39-3.62-2.15-5.4-1.23-2.88-2.53-5.74-4-8.51a69.57,69.57,0,0,0-13.1-16.62c-9.68-9.4-21-16.32-34.37-19.33-8.25-1.85-15.78-.37-23.69,2.48a111.18,111.18,0,0,0-14.63,5.94"/></g></svg>