<svg width="687" height="503" viewBox="0 0 687 503" fill="none" xmlns="http://www.w3.org/2000/svg">
<path fill-rule="evenodd" clip-rule="evenodd" d="M556.999 267.645C558.597 255.106 560.287 242.64 563.362 230.347C565.174 223.104 567.492 216.013 569.6 208.853C569.41 209.751 569.243 210.655 569.097 211.562C569.829 209.426 571.355 207.385 572.234 205.258C573.215 202.885 574.004 200.419 574.755 197.969C576.219 193.186 577.602 188.394 579.249 183.666C581.085 178.399 583.197 173.219 585.166 167.999C586.837 163.568 588.403 158.915 590.575 154.688C591.759 152.383 592.822 149.908 593.984 147.559C594.373 146.773 597.716 137.991 597.691 137.991C597.141 137.99 595.071 141.892 594.728 142.466C593.726 144.14 592.875 145.883 592.014 147.629C591.648 145.553 591.065 143.52 590.145 141.611C589.862 141.022 587.87 136.675 587.218 136.673C586.893 136.673 589.884 144.88 590.263 145.601C590.57 146.186 591.147 146.929 591.347 147.551C591.671 148.557 591.504 148.305 591.233 149.211C590.738 150.872 589.646 152.497 588.957 154.092C588.58 154.943 587.647 157.893 586.743 159.214C584.411 163.75 582.75 169.283 580.973 174.175C580.597 171.769 579.944 169.449 579.037 167.183C578.822 166.645 577.113 161.655 576.618 161.654C576.061 161.653 578.179 169.645 578.467 170.335C579.003 171.618 579.847 172.86 580.292 174.166C580.78 175.598 579.915 176.886 579.363 178.349C577.331 183.733 575.548 189.172 573.919 194.684C564.52 190.547 562.673 178.419 562.076 169.477C561.646 163.032 562.655 156.472 564.231 150.224C566.333 141.885 569.86 133.837 573.599 126.09C577.957 117.063 583.942 109.004 591.152 101.944C594.924 98.251 599.217 95.0524 603.577 92.0559C605.707 90.592 607.894 89.3776 610.379 88.5656C611.499 88.2 612.648 87.9359 613.81 87.7342C614.693 87.5809 616.495 86.7659 617.227 86.9759C623.199 88.6402 627.686 91.3981 631.159 96.5161C634.446 101.361 636.482 107.149 637.609 112.826C638.863 119.147 639.157 125.519 638.058 131.876C637.22 136.727 635.78 141.481 634.339 146.189C629.213 162.932 620.249 180.876 604.208 190.036C599.015 193.001 593.257 194.729 587.347 195.64C585.954 195.855 584.563 196.059 583.154 196.136C582.204 196.188 579.083 195.551 578.395 195.959C577.452 196.519 576.905 199.703 576.492 200.857C573.355 209.627 570.549 218.498 568 227.449C565.289 236.972 563.132 246.588 561.331 256.312C560.566 260.449 559.82 264.578 559.183 268.737C559.035 269.704 559.181 272.749 558.234 273.602C557.636 274.141 556.792 273.918 556.438 273.256C555.822 272.104 556.835 268.929 556.999 267.645" fill="#119FA6"/>
<path fill-rule="evenodd" clip-rule="evenodd" d="M599.463 193.529C601.262 192.894 603.156 192.449 605.138 192.432C605.639 192.428 609.3 192.546 609.359 192.931C609.496 193.827 600.014 193.316 599.463 193.529M588.966 178.56C588.951 178.616 587.118 179.757 586.592 180.126C585.472 180.909 584.389 181.736 583.338 182.58C585.043 181.017 586.703 179.604 588.966 178.56M656.081 226.918C656.95 227.7 658.73 227.097 657.556 226.18C656.606 225.441 656.684 225.41 656.582 224.395C656.5 223.571 656.633 222.677 656.612 221.844C656.57 220.077 656.399 218.33 656.001 216.579C655.149 212.827 653.648 209.229 651.652 205.848C648.168 199.949 643.92 194.051 638.575 189.558C630.075 182.414 619.108 177 608.559 174.122C602.025 172.34 595.628 171.604 589.508 174.163C586.449 175.442 583.637 177.307 581.582 179.857C581.045 180.524 580.68 181.376 580.106 182.005C579.223 182.973 579.518 182.744 577.976 182.28C576.292 181.772 574.607 181.271 572.92 180.774C568.503 179.473 564.043 178.2 559.538 177.357C558.055 177.079 556.565 176.892 555.071 176.789C553.941 176.71 549.593 176.083 548.591 177.001C546.922 178.53 549.899 178.894 550.893 178.862C551.763 178.833 552.641 178.838 553.517 178.874C555.722 178.966 557.919 179.272 560.1 179.721C562.458 180.206 564.796 180.843 567.126 181.476C569.298 182.067 571.463 182.694 573.623 183.336C574.823 183.693 576.022 184.055 577.221 184.418C577.63 184.542 578.449 184.558 578.18 184.991C580.729 185.693 583.241 186.963 585.69 187.988C588.689 189.244 591.686 190.53 594.588 192.015C596.68 193.086 598.743 194.226 600.729 195.494C601.889 196.234 602.996 197.037 604.071 197.897C604.661 198.37 607.125 199.95 607.233 200.656C607.186 200.352 604.187 199.197 603.825 199.008C602.377 198.256 600.98 197.426 599.584 196.576C596.994 194.999 594.34 193.555 591.598 192.276C591.398 192.722 592.89 194.398 593.206 194.907C593.914 196.05 594.552 197.231 595.09 198.451C596.039 200.6 597.148 203.229 597.48 205.398C597.382 204.759 596.065 203.36 595.667 202.718C595.029 201.689 594.429 200.63 593.898 199.55C593.408 198.553 592.995 197.531 592.6 196.5C592.206 195.469 591.907 193.574 591.177 192.665C591.133 192.61 590.576 192.714 590.39 192.5C590.202 192.284 590.153 191.629 590.103 191.579C589.369 190.845 587.507 190.437 586.56 190.035C584.105 188.99 581.638 187.979 579.175 186.956C578.412 186.639 577.853 186.181 577.331 186.553C576.774 186.95 576.648 188.63 576.524 189.293C576.064 191.752 576.162 194.2 576.977 196.663C578.504 201.277 581.242 205.172 584.798 208.599C598.419 221.724 614.62 232.099 633.494 234.182C641.308 235.044 653.388 235.687 656.081 226.918" fill="#064874"/>
<path fill-rule="evenodd" clip-rule="evenodd" d="M23.4206 149.334C23.9541 148.946 25.2196 148.809 25.8084 148.692C28.2556 148.21 30.7766 148 33.2716 148C40.9648 148.012 48.7829 148.767 56.3484 150.074C61.1517 150.903 66.9586 153.696 71.7369 152.179C80.0613 149.537 88.4744 149.667 96.3722 153.439C103.593 156.888 109.074 163.439 112.273 170.517C112.756 171.586 114.714 175.519 115.268 178.17C115.505 178.712 115.733 179.257 115.938 179.811C116.521 181.384 117.043 182.984 117.528 184.588C117.736 185.272 118.257 186.782 117.638 187.074C118.627 188.901 119.505 190.783 120.235 192.726C122.36 198.378 124.684 204.578 125.431 210.568C125.707 212.786 125.718 215.017 125.461 217.239C125.334 218.338 125.386 220.546 124.642 221.382C123.061 223.154 122.25 220.673 122.428 219.491C123.789 210.485 121.161 202.027 118.048 193.561C116.034 188.087 112.726 183.078 109.02 178.543C106.021 174.871 102.804 171.98 98.6928 169.546C93.6654 166.569 88.2903 164.163 82.9647 161.749C79.4621 160.161 75.9553 158.615 72.3548 157.247C71.5542 156.942 70.2945 156.161 69.4069 156.158C67.5296 156.152 64.8694 157.537 63.0561 158.052C57.092 159.748 51.0516 161.919 44.8877 162.785C40.9342 163.341 37.23 162.715 33.5325 161.398C33.1547 161.264 32.5214 160.918 31.7454 160.424C29.0003 159.368 26.4034 158.039 24.1423 156.121C22.8395 155.017 21.6575 153.589 20.5795 152.282C20.2569 151.892 20.1143 151.444 20.1094 151.018C19.8651 150.891 19.703 150.741 19.6664 150.567C19.3974 149.281 21.8503 149.258 23.4206 149.334" fill="#16C1CA"/>
<path fill-rule="evenodd" clip-rule="evenodd" d="M58.363 87.9263C61.8434 87.6483 65.5674 88.213 69.0018 88.7428C87.4307 91.5085 104.371 102.719 114.268 118.293C122.694 131.552 123.442 146.712 123.392 161.926C123.386 163.437 123.27 164.922 123.178 166.424C123.159 166.747 123.156 167.036 123.157 167.309C123.842 168.113 124.141 168.983 123.557 169.813C124.764 173.81 125.693 177.866 126.399 182.015C128.477 194.227 130.588 206.67 126.609 218.672C126.994 211.822 126.807 204.738 126.362 197.887C126.337 197.494 126.304 197.103 126.268 196.713C126.265 196.671 126.262 196.63 126.258 196.59C126.057 194.483 125.705 192.418 125.213 190.366C125.208 190.343 125.203 190.321 125.198 190.299C125.133 190.029 125.062 189.76 124.992 189.49C124.847 188.932 124.696 188.375 124.531 187.818C124.476 187.629 124.423 187.438 124.374 187.246C123.64 184.395 123.589 181.288 122.983 178.359C122.833 177.692 122.672 177.025 122.5 176.36C122.489 176.321 122.479 176.282 122.468 176.243C122 174.453 121.455 172.674 120.864 170.906C120.466 170.512 120.341 169.652 120.061 168.848C120.002 168.689 119.518 167.616 119.411 167.022C119.057 166.026 118.704 165.03 118.346 164.035C118.36 164.042 118.374 164.05 118.387 164.057C118.024 163.099 117.659 162.144 117.297 161.194C117.217 160.986 117.137 160.776 117.056 160.567C116.925 160.233 116.794 159.899 116.664 159.567C115.44 156.452 114.112 153.382 112.713 150.339C112.213 149.253 110.89 147.613 110.752 146.45C110.747 146.407 110.75 146.368 110.749 146.327C107.624 140.373 103.857 134.762 99.0621 130.069C99.6121 130.853 100.661 133.406 100.959 133.923C101.873 135.508 102.895 137.007 103.92 138.523C105.754 141.238 107.527 144.023 109.045 146.92C111.821 152.217 114.091 157.703 116.185 163.269C116.208 163.303 116.233 163.335 116.254 163.37C117.425 165.297 117.954 168.039 118.697 170.162C114.94 167.759 110.672 165.945 106.781 163.736C102.902 161.533 99.1593 159.159 95.5982 156.484C90.8651 152.93 85.9911 148.98 81.6486 144.671C76.571 140.475 72.5554 135.105 69.1183 129.576C65.0517 123.033 61.3988 116.495 59.6124 108.981C58.735 105.288 58.1671 101.485 58.039 97.6986C58.0333 97.5334 58.0219 97.3537 58.0083 97.1667C57.5357 95.8006 57.1355 94.4151 56.8325 93.0121C56.3508 90.7869 54.849 88.2066 58.363 87.9263" fill="#04304E"/>
<path fill-rule="evenodd" clip-rule="evenodd" d="M4.67749 202.508C5.2915 197.782 8.24547 193.391 11.3758 189.859C23.6023 176.06 40.2141 167.627 57.7702 163.182C67.39 160.746 77.5792 159.97 87.4176 160.032C93.0965 160.068 98.7685 160.639 104.183 162.282C107.837 163.392 111.269 164.972 114.553 166.891C118.554 169.23 122.501 171.769 126.176 174.592C127.623 175.703 135.552 181.316 133.668 183.689C133.857 183.834 134.03 183.982 134.17 184.13C146.217 186.026 157.92 190.973 168.961 195.726C178.568 199.862 188.001 204.322 196.949 209.719C208.729 216.825 220.094 224.706 230.883 233.225C233.201 235.055 235.486 236.927 237.762 238.811C239.703 240.419 241.645 242.026 243.585 243.635C245.759 245.438 248.521 247.221 250.324 249.419C251.894 251.332 250.214 252.67 248.332 251.127C246.059 249.264 243.868 247.298 241.583 245.445C238.55 242.986 235.513 240.53 232.468 238.087C211.31 221.114 188.024 207.143 162.769 197.057C152.549 192.976 142.381 189.668 131.575 187.419C122.073 185.441 112.124 184.374 102.508 183.774C93.1633 183.192 83.7945 182.894 74.4326 184.031C66.8355 184.954 59.3479 186.739 51.9734 188.859C42.6071 191.552 33.3461 194.318 24.4342 198.329C19.8019 200.414 15.2749 202.709 10.6817 204.877C9.85528 205.267 8.9968 205.71 8.1491 206.038C5.32143 207.133 4.34313 205.081 4.67749 202.508" fill="#064874"/>
<path fill-rule="evenodd" clip-rule="evenodd" d="M100.828 342C93.3507 342 86.6971 342.972 79.8076 345.943C73.8606 348.508 68.4409 351.903 63.1789 355.599C55.7774 360.798 49.9474 366.848 45.8666 374.865C43.4286 379.654 41.6402 386.431 43.2775 391.655C45.2062 397.808 50.5019 402.939 57.4765 401.855C61.7894 401.185 65.743 398.33 69.021 395.643C72.9424 392.428 76.0815 388.563 78.6734 384.27C82.9015 377.268 85.386 369.351 88.9777 362.034C90.682 358.561 92.329 355.063 94.3703 351.762C95.3809 350.128 96.4568 348.509 97.9898 347.294C98.81 346.645 102.268 345.52 100.946 344.061C120.336 344.316 137.514 359.208 141.236 377.641C141.583 379.359 141.854 381.091 142.14 382.82C142.321 383.911 142.248 387.937 143.224 388.634C145.376 390.172 144.471 385.499 144.379 384.826C144.14 383.088 143.886 381.35 143.619 379.616C142.165 370.182 137.965 361.411 130.961 354.683C122.951 346.99 112.145 342 100.828 342" fill="#108D94"/>
<rect width="6" height="25" rx="3" transform="matrix(-1 0 0 1 194.646 34)" fill="#119FA6"/>
<rect width="6" height="41" rx="3" transform="matrix(-1 0 0 1 180.646 18)" fill="#119FA6"/>
<rect width="6" height="49" rx="3" transform="matrix(-1 0 0 1 166.646 10)" fill="#119FA6"/>
<rect width="6" height="41" rx="3" transform="matrix(-1 0 0 1 152.646 18)" fill="#119FA6"/>
<rect width="6" height="57" rx="3" transform="matrix(-1 0 0 1 138.646 2)" fill="#064874"/>
<path fill-rule="evenodd" clip-rule="evenodd" d="M686.646 308.256C686.646 297.117 677.644 288 666.646 288V308.256L680.314 323C684.202 319.395 686.646 314.107 686.646 308.256Z" fill="#119FA6"/>
<path fill-rule="evenodd" clip-rule="evenodd" d="M667.175 308H646.978C646.978 313.221 649.108 318.113 652.475 321.668C656.178 325.556 661.451 328 667.175 328C672.448 328 677.274 325.891 680.978 322.557L667.175 308Z" fill="#064874"/>
<path fill-rule="evenodd" clip-rule="evenodd" d="M646.646 308C646.646 297.002 655.648 288 666.646 288V308H646.646ZM676.646 288L668.646 306L686.646 298C684.866 293.334 680.869 289.78 676.646 288Z" fill="#053C61"/>
<path fill-rule="evenodd" clip-rule="evenodd" d="M35.7565 317.043C37.6422 319.116 40.3415 320.444 43.3686 320.497C49.1851 320.599 53.9824 315.981 54.0836 310.182C54.1848 304.384 49.5516 299.602 43.7351 299.5L44.0755 280.003C60.6223 280.292 73.9304 294.029 73.6425 310.524C73.3546 327.018 59.5751 340.283 43.0283 339.994C34.3366 339.842 26.5455 336.04 21.2926 330.115L35.7565 317.043Z" fill="#16C1CA"/>
<path fill-rule="evenodd" clip-rule="evenodd" d="M44.1707 280.005L43.8303 299.502C38.0322 299.401 33.2499 304.019 33.1487 309.817L13.6517 309.477C13.9396 292.982 27.6762 279.717 44.1707 280.005Z" fill="#064874"/>
<path fill-rule="evenodd" clip-rule="evenodd" d="M33.5516 309.824C33.4922 313.231 35.0436 316.286 37.5015 318.285L24.9692 333.678C17.9303 327.966 13.4815 319.224 13.6516 309.477L33.5516 309.824Z" fill="#064874"/>
<path fill-rule="evenodd" clip-rule="evenodd" d="M226.595 41.5039C228.073 43.0679 230.167 44.05 232.496 44.05C236.971 44.05 240.598 40.4459 240.598 36C240.598 31.5541 236.971 27.95 232.496 27.95V13C245.226 13 255.646 23.3523 255.646 36C255.646 48.6477 245.226 59 232.496 59C225.809 59 219.766 56.1894 215.646 51.7182L226.595 41.5039Z" fill="#16C1CA"/>
<path fill-rule="evenodd" clip-rule="evenodd" d="M232.646 13V27.95C228.2 27.95 224.596 31.5541 224.596 36H209.646C209.646 23.3523 219.998 13 232.646 13Z" fill="#064874"/>
<path fill-rule="evenodd" clip-rule="evenodd" d="M224.573 36C224.573 38.5552 225.777 40.8266 227.646 42.2931L218.45 54C213.097 49.8088 209.646 43.312 209.646 36H224.573Z" fill="#04304E"/>
<rect width="95" height="63" rx="4" transform="matrix(-1 0 0 1 638.646 0.5)" fill="#053C61"/>
<path fill-rule="evenodd" clip-rule="evenodd" d="M602.646 18.5L630.646 63.5H574.646L602.646 18.5Z" fill="#04304E"/>
<path fill-rule="evenodd" clip-rule="evenodd" d="M575.146 30.5L599.646 63.5H550.646L575.146 30.5Z" fill="#064874"/>
<path fill-rule="evenodd" clip-rule="evenodd" d="M564.646 30.5C559.675 30.5 555.646 26.4706 555.646 21.5C555.646 16.5294 559.675 12.5 564.646 12.5C569.617 12.5 573.646 16.5294 573.646 21.5C573.646 26.4706 569.617 30.5 564.646 30.5Z" fill="#119FA6"/>
<rect x="42.6461" y="409" width="142" height="94" rx="4" fill="#064874"/>
<path fill-rule="evenodd" clip-rule="evenodd" d="M95.3718 436L54.3168 503H136.427L95.3718 436Z" fill="#108D94"/>
<path fill-rule="evenodd" clip-rule="evenodd" d="M137.702 453.946L101.407 503H173.997L137.702 453.946Z" fill="#04304E"/>
<path fill-rule="evenodd" clip-rule="evenodd" d="M153.146 454C160.602 454 166.646 447.956 166.646 440.5C166.646 433.044 160.602 427 153.146 427C145.69 427 139.646 433.044 139.646 440.5C139.646 447.956 145.69 454 153.146 454Z" fill="#16C1CA"/>
<g clip-path="url(#clip0_3_8)">
<rect width="159" height="302" rx="8" transform="matrix(-1 0 0 1 576.646 26)" fill="#04304E"/>
<path fill-rule="evenodd" clip-rule="evenodd" d="M497.646 309C489.362 309 482.646 302.284 482.646 294C482.646 285.716 489.362 279 497.646 279C505.93 279 512.646 285.716 512.646 294C512.646 302.284 505.93 309 497.646 309Z" fill="#119FA6"/>
<path fill-rule="evenodd" clip-rule="evenodd" d="M510.646 46C509.541 46 508.646 45.1046 508.646 44C508.646 42.8954 509.541 42 510.646 42C511.751 42 512.646 42.8954 512.646 44C512.646 45.1046 511.751 46 510.646 46Z" fill="#119FA6"/>
<rect width="21" height="4" rx="2" transform="matrix(-1 0 0 1 503.646 42)" fill="#119FA6"/>
<g clip-path="url(#clip1_3_8)">
<g clip-path="url(#clip2_3_8)">
<rect width="131" height="54" rx="4" transform="matrix(-1 0 0 1 562.646 54)" fill="#064874"/>
<g clip-path="url(#clip3_3_8)">
<rect width="73" height="8.1" rx="3" transform="matrix(-1 0 0 1 523.646 70.2)" fill="#119FA6"/>
<rect width="49" height="8.1" rx="3" transform="matrix(-1 0 0 1 523.646 83.7)" fill="#119FA6"/>
</g>
<path fill-rule="evenodd" clip-rule="evenodd" d="M541.646 93C535.019 93 529.646 87.6274 529.646 81C529.646 74.3726 535.019 69 541.646 69C548.273 69 553.646 74.3726 553.646 81C553.646 87.6274 548.273 93 541.646 93Z" fill="#119FA6"/>
</g>
<g clip-path="url(#clip4_3_8)">
<rect width="131" height="42" rx="4" transform="matrix(-1 0 0 1 562.646 116)" fill="#064874"/>
<g clip-path="url(#clip5_3_8)">
<rect width="73" height="6.3" rx="3" transform="matrix(-1 0 0 1 523.646 128.6)" fill="#119FA6"/>
<rect width="49" height="6.3" rx="3" transform="matrix(-1 0 0 1 523.646 139.1)" fill="#119FA6"/>
</g>
<path fill-rule="evenodd" clip-rule="evenodd" d="M541.646 149C535.019 149 529.646 143.627 529.646 137C529.646 130.373 535.019 125 541.646 125C548.273 125 553.646 130.373 553.646 137C553.646 143.627 548.273 149 541.646 149Z" fill="#119FA6"/>
</g>
<g clip-path="url(#clip6_3_8)">
<rect width="131" height="42" rx="4" transform="matrix(-1 0 0 1 562.646 166)" fill="#064874"/>
<g clip-path="url(#clip7_3_8)">
<rect width="73" height="6.3" rx="3" transform="matrix(-1 0 0 1 523.646 178.6)" fill="#119FA6"/>
<rect width="49" height="6.3" rx="3" transform="matrix(-1 0 0 1 523.646 189.1)" fill="#119FA6"/>
</g>
<path fill-rule="evenodd" clip-rule="evenodd" d="M541.646 199C535.019 199 529.646 193.627 529.646 187C529.646 180.373 535.019 175 541.646 175C548.273 175 553.646 180.373 553.646 187C553.646 193.627 548.273 199 541.646 199Z" fill="#119FA6"/>
</g>
<g clip-path="url(#clip8_3_8)">
<rect width="131" height="42" rx="4" transform="matrix(-1 0 0 1 562.646 216)" fill="#064874"/>
<g clip-path="url(#clip9_3_8)">
<rect width="73" height="6.3" rx="3" transform="matrix(-1 0 0 1 523.646 228.6)" fill="#119FA6"/>
<rect width="49" height="6.3" rx="3" transform="matrix(-1 0 0 1 523.646 239.1)" fill="#119FA6"/>
</g>
<path fill-rule="evenodd" clip-rule="evenodd" d="M541.646 249C535.019 249 529.646 243.627 529.646 237C529.646 230.373 535.019 225 541.646 225C548.273 225 553.646 230.373 553.646 237C553.646 243.627 548.273 249 541.646 249Z" fill="#119FA6"/>
</g>
</g>
</g>
<g clip-path="url(#clip10_3_8)">
<rect width="335" height="346" rx="8" transform="matrix(-1 0 0 1 444.646 77)" fill="#03243A"/>
<rect width="70" height="81" rx="8" transform="matrix(-1 0 0 1 195.646 120)" fill="#053C61"/>
<path fill-rule="evenodd" clip-rule="evenodd" d="M160.646 167C151.81 167 144.646 159.837 144.646 151C144.646 142.163 151.81 135 160.646 135C169.483 135 176.646 142.163 176.646 151C176.646 159.837 169.483 167 160.646 167Z" fill="#119FA6"/>
<rect width="50" height="6" rx="3" transform="matrix(-1 0 0 1 185.646 171)" fill="#119FA6"/>
<rect width="34" height="6" rx="3" transform="matrix(-1 0 0 1 177.646 181)" fill="#119FA6"/>
<path d="M444.646 85C444.646 80.5817 441.064 77 436.646 77H117.646C113.228 77 109.646 80.5817 109.646 85V104H444.646V85Z" fill="#053C61"/>
<path fill-rule="evenodd" clip-rule="evenodd" d="M431.646 95C429.437 95 427.646 93.2091 427.646 91C427.646 88.7909 429.437 87 431.646 87C433.855 87 435.646 88.7909 435.646 91C435.646 93.2091 433.855 95 431.646 95Z" fill="#119FA6"/>
<path fill-rule="evenodd" clip-rule="evenodd" d="M419.646 95C417.437 95 415.646 93.2091 415.646 91C415.646 88.7909 417.437 87 419.646 87C421.855 87 423.646 88.7909 423.646 91C423.646 93.2091 421.855 95 419.646 95Z" fill="#119FA6"/>
<path fill-rule="evenodd" clip-rule="evenodd" d="M407.646 95C405.437 95 403.646 93.2091 403.646 91C403.646 88.7909 405.437 87 407.646 87C409.855 87 411.646 88.7909 411.646 91C411.646 93.2091 409.855 95 407.646 95Z" fill="#119FA6"/>
<g clip-path="url(#clip11_3_8)">
<rect width="70" height="194" rx="8" transform="matrix(-1 0 0 1 195.646 209)" fill="#053C61"/>
<g clip-path="url(#clip12_3_8)">
<rect width="34" height="26" rx="4" transform="matrix(-1 0 0 1 177.646 227)" fill="#119FA6"/>
<rect width="34" height="25" rx="4" transform="matrix(-1 0 0 1 177.646 261)" fill="#119FA6"/>
<rect width="34" height="25" rx="4" transform="matrix(-1 0 0 1 177.646 294)" fill="#119FA6"/>
<rect width="34" height="25" rx="4" transform="matrix(-1 0 0 1 177.646 360)" fill="#119FA6"/>
<rect width="34" height="25" rx="4" transform="matrix(-1 0 0 1 177.646 327)" fill="#119FA6"/>
</g>
</g>
<g clip-path="url(#clip13_3_8)">
<g clip-path="url(#clip14_3_8)">
<rect width="225" height="47" rx="4" transform="matrix(-1 0 0 1 428.646 121)" fill="#053C61"/>
<g clip-path="url(#clip15_3_8)">
<rect width="167" height="7.05" rx="3" transform="matrix(-1 0 0 1 419.646 135.1)" fill="#119FA6"/>
<rect width="112.096" height="7.05" rx="3" transform="matrix(-1 0 0 1 419.646 146.85)" fill="#119FA6"/>
</g>
<path fill-rule="evenodd" clip-rule="evenodd" d="M227.692 147.5C226.035 147.5 224.692 146.157 224.692 144.5C224.692 142.843 226.035 141.5 227.692 141.5C229.349 141.5 230.692 142.843 230.692 144.5C230.692 146.157 229.349 147.5 227.692 147.5Z" fill="#119FA6"/>
</g>
<g clip-path="url(#clip16_3_8)">
<rect width="225" height="39" rx="4" transform="matrix(-1 0 0 1 428.646 176)" fill="#053C61"/>
<g clip-path="url(#clip17_3_8)">
<rect width="167" height="5.85" rx="2.925" transform="matrix(-1 0 0 1 419.646 187.7)" fill="#119FA6"/>
<rect width="112.096" height="5.85" rx="2.925" transform="matrix(-1 0 0 1 419.646 197.45)" fill="#119FA6"/>
</g>
<path fill-rule="evenodd" clip-rule="evenodd" d="M227.692 202.5C223.826 202.5 220.692 199.366 220.692 195.5C220.692 191.634 223.826 188.5 227.692 188.5C231.558 188.5 234.692 191.634 234.692 195.5C234.692 199.366 231.558 202.5 227.692 202.5Z" fill="#119FA6"/>
<path fill-rule="evenodd" clip-rule="evenodd" d="M227.692 198.5C226.035 198.5 224.692 197.157 224.692 195.5C224.692 193.843 226.035 192.5 227.692 192.5C229.349 192.5 230.692 193.843 230.692 195.5C230.692 197.157 229.349 198.5 227.692 198.5Z" fill="#119FA6"/>
</g>
<g clip-path="url(#clip18_3_8)">
<rect width="225" height="39" rx="4" transform="matrix(-1 0 0 1 428.646 223)" fill="#053C61"/>
<g clip-path="url(#clip19_3_8)">
<rect width="167" height="5.85" rx="2.925" transform="matrix(-1 0 0 1 419.646 234.7)" fill="#119FA6"/>
<rect width="112.096" height="5.85" rx="2.925" transform="matrix(-1 0 0 1 419.646 244.45)" fill="#119FA6"/>
</g>
<path fill-rule="evenodd" clip-rule="evenodd" d="M227.692 249.5C223.826 249.5 220.692 246.366 220.692 242.5C220.692 238.634 223.826 235.5 227.692 235.5C231.558 235.5 234.692 238.634 234.692 242.5C234.692 246.366 231.558 249.5 227.692 249.5Z" fill="#119FA6"/>
<path fill-rule="evenodd" clip-rule="evenodd" d="M227.692 245.5C226.035 245.5 224.692 244.157 224.692 242.5C224.692 240.843 226.035 239.5 227.692 239.5C229.349 239.5 230.692 240.843 230.692 242.5C230.692 244.157 229.349 245.5 227.692 245.5Z" fill="#119FA6"/>
</g>
<g clip-path="url(#clip20_3_8)">
<rect width="225" height="39" rx="4" transform="matrix(-1 0 0 1 428.646 364)" fill="#053C61"/>
<g clip-path="url(#clip21_3_8)">
<rect width="167" height="5.85" rx="2.925" transform="matrix(-1 0 0 1 419.646 375.7)" fill="#119FA6"/>
<rect width="112.096" height="5.85" rx="2.925" transform="matrix(-1 0 0 1 419.646 385.45)" fill="#119FA6"/>
</g>
<path fill-rule="evenodd" clip-rule="evenodd" d="M227.692 390.5C223.826 390.5 220.692 387.366 220.692 383.5C220.692 379.634 223.826 376.5 227.692 376.5C231.558 376.5 234.692 379.634 234.692 383.5C234.692 387.366 231.558 390.5 227.692 390.5Z" fill="#119FA6"/>
<path fill-rule="evenodd" clip-rule="evenodd" d="M227.692 386.5C226.035 386.5 224.692 385.157 224.692 383.5C224.692 381.843 226.035 380.5 227.692 380.5C229.349 380.5 230.692 381.843 230.692 383.5C230.692 385.157 229.349 386.5 227.692 386.5Z" fill="#119FA6"/>
</g>
<g clip-path="url(#clip22_3_8)">
<rect width="225" height="39" rx="4" transform="matrix(-1 0 0 1 428.646 317)" fill="#053C61"/>
<g clip-path="url(#clip23_3_8)">
<rect width="167" height="5.85" rx="2.925" transform="matrix(-1 0 0 1 419.646 328.7)" fill="#119FA6"/>
<rect width="112.096" height="5.85" rx="2.925" transform="matrix(-1 0 0 1 419.646 338.45)" fill="#119FA6"/>
</g>
<path fill-rule="evenodd" clip-rule="evenodd" d="M227.692 343.5C223.826 343.5 220.692 340.366 220.692 336.5C220.692 332.634 223.826 329.5 227.692 329.5C231.558 329.5 234.692 332.634 234.692 336.5C234.692 340.366 231.558 343.5 227.692 343.5Z" fill="#119FA6"/>
<path fill-rule="evenodd" clip-rule="evenodd" d="M227.692 339.5C226.035 339.5 224.692 338.157 224.692 336.5C224.692 334.843 226.035 333.5 227.692 333.5C229.349 333.5 230.692 334.843 230.692 336.5C230.692 338.157 229.349 339.5 227.692 339.5Z" fill="#119FA6"/>
</g>
<g clip-path="url(#clip24_3_8)">
<rect width="225" height="39" rx="4" transform="matrix(-1 0 0 1 428.646 270)" fill="#053C61"/>
<g clip-path="url(#clip25_3_8)">
<rect width="167" height="5.85" rx="2.925" transform="matrix(-1 0 0 1 419.646 281.7)" fill="#119FA6"/>
<rect width="112.096" height="5.85" rx="2.925" transform="matrix(-1 0 0 1 419.646 291.45)" fill="#119FA6"/>
</g>
<path fill-rule="evenodd" clip-rule="evenodd" d="M227.692 296.5C223.826 296.5 220.692 293.366 220.692 289.5C220.692 285.634 223.826 282.5 227.692 282.5C231.558 282.5 234.692 285.634 234.692 289.5C234.692 293.366 231.558 296.5 227.692 296.5Z" fill="#119FA6"/>
<path fill-rule="evenodd" clip-rule="evenodd" d="M227.692 292.5C226.035 292.5 224.692 291.157 224.692 289.5C224.692 287.843 226.035 286.5 227.692 286.5C229.349 286.5 230.692 287.843 230.692 289.5C230.692 291.157 229.349 292.5 227.692 292.5Z" fill="#119FA6"/>
</g>
</g>
</g>
<path fill-rule="evenodd" clip-rule="evenodd" d="M401.169 162.738C392.667 167.864 384.314 170.341 380.392 169.33C370.559 166.795 369.655 130.81 377.264 116.623C384.872 102.437 423.983 96.2538 425.955 124.362C426.639 134.117 422.545 142.823 416.495 149.927L427.342 200.506H395.832L401.169 162.738Z" fill="#16C1CA"/>
<path fill-rule="evenodd" clip-rule="evenodd" d="M415.526 117.761C397.343 117.891 384.692 117.125 377.452 115.134C377.782 108.969 384.188 102 401.084 102C419.882 102 429.968 112.961 429.968 125.642C429.968 137.227 422.513 151.336 416.839 151.91C415.369 151.588 414.113 149.816 412.865 147.375C415.202 146.237 416.839 143.556 416.839 140.089C416.839 136.756 413.9 133.522 410.275 133.522C408.952 133.522 407.721 133.952 406.691 134.661C404.308 130.823 401.323 127.956 397.145 128.268L399.771 120.388L415.526 119.074V117.761Z" fill="#03243A"/>
<path fill-rule="evenodd" clip-rule="evenodd" d="M441.798 289.594C440.188 311.565 336.483 376.251 335.878 378.065C335.475 379.275 368.157 454.56 368.157 454.56L359.092 458.083C359.092 458.083 308.962 378.351 311.537 369.855C315.223 357.692 392 289.828 392 289.828L441.798 289.594Z" fill="#0B6B84"/>
<path fill-rule="evenodd" clip-rule="evenodd" d="M365.772 443.226L350.971 448.613C319.762 413.4 307.529 384.346 309.759 369.542C311.99 354.738 389.945 289.648 389.945 289.648L442.859 289.648C441.054 340.53 344.932 378.259 343.647 380.427C342.361 382.596 355.013 403.832 365.772 443.226Z" fill="#064874"/>
<path fill-rule="evenodd" clip-rule="evenodd" d="M368.657 452.899C369.508 452.095 370.868 452.106 371.616 453.007C372.827 454.467 374.45 456.574 374.948 457.941C375.774 460.211 376.602 464.839 376.602 464.839C373.97 465.798 329.284 482.062 329.284 482.062C329.284 482.062 325.221 476.635 329.017 474.703C332.814 472.77 335.3 471.422 335.3 471.422L353.645 453.689C354.05 453.298 354.699 453.318 355.079 453.734L357.666 456.567C357.666 456.567 361.969 456.945 364.269 456.107C365.609 455.62 367.397 454.091 368.657 452.899Z" fill="#16C1CA"/>
<path fill-rule="evenodd" clip-rule="evenodd" d="M429.874 289.594L476.072 400.501L521.477 494.264H510.764L393.561 289.594H429.874Z" fill="#0B6B84"/>
<path fill-rule="evenodd" clip-rule="evenodd" d="M519.429 489.031C520.504 488.566 521.778 489.042 522.172 490.144C522.812 491.931 523.616 494.466 523.616 495.921C523.616 498.336 522.811 502.969 522.811 502.969C520.01 502.969 472.457 502.969 472.457 502.969C472.457 502.969 470.494 496.48 474.723 495.962C478.952 495.445 481.749 495.028 481.749 495.028L505.052 484.639C505.567 484.41 506.169 484.65 506.384 485.171L507.846 488.719C507.846 488.719 511.761 490.545 514.209 490.545C515.634 490.545 517.837 489.72 519.429 489.031Z" fill="#16C1CA"/>
<path fill-rule="evenodd" clip-rule="evenodd" d="M517.376 474.786L493.573 479.25C475.168 452.192 398.144 341.243 389.699 289.594H442.69C470.893 326.931 499.833 447.28 517.376 474.786Z" fill="#053C61"/>
<path fill-rule="evenodd" clip-rule="evenodd" d="M358.833 247.978L325.119 272.735C315.975 275.203 308.335 278.272 302.2 281.945C300.751 283.265 298.999 285.94 305.009 285.477C311.02 285.015 317.362 284.799 318.192 286.849C319.021 288.899 315.384 291.351 317.06 294.117C318.178 295.961 323.458 291.337 332.9 280.246L366.286 266.401L358.833 247.978Z" fill="#16C1CA"/>
<path fill-rule="evenodd" clip-rule="evenodd" d="M411.2 181.305C392.84 215.538 366.292 241.781 327.803 269.061L342.376 285.493C385.35 269.523 408.031 259.888 419.169 227.544C421.965 219.426 423.918 193.548 425.595 179.933L411.2 181.305Z" fill="#053C61"/>
<path fill-rule="evenodd" clip-rule="evenodd" d="M450.992 299.683H369.608C369.608 299.683 397.26 215.348 397.859 183.919C397.88 182.85 399.853 180.968 400.725 181.215C410.3 183.919 421.216 179.192 421.216 179.192C440.51 210.222 447.182 248.427 450.992 299.683Z" fill="#16C1CA"/>
<path fill-rule="evenodd" clip-rule="evenodd" d="M341.728 181.667L301.666 169.64C294.192 163.822 287.143 159.569 280.518 156.879C278.591 156.516 275.401 156.727 279.387 161.249C283.373 165.771 287.363 170.706 286.225 172.602C285.087 174.498 280.94 173.069 279.74 176.072C278.94 178.075 285.81 179.509 300.35 180.375L331.499 198.706L341.728 181.667Z" fill="#16C1CA"/>
<path fill-rule="evenodd" clip-rule="evenodd" d="M414.082 179.236C390.933 179.192 352.231 184.069 307.413 169.68L303.103 191.214C341.624 215.988 380.71 234.244 413.121 223.712C418.544 221.949 410.303 206.608 414.082 179.236Z" fill="#064874"/>
<path fill-rule="evenodd" clip-rule="evenodd" d="M460.133 325.69C460.133 325.69 436.841 325.69 416.739 325.69C380.823 325.69 389.915 252.578 414.288 179.192C414.288 179.192 422.694 179.192 426.897 179.192C430.113 179.192 431.478 181.524 432.119 182.761C448.912 215.153 467.025 279.373 460.133 325.69Z" fill="#085178"/>
<defs>
<clipPath id="clip0_3_8">
<rect width="159" height="302" fill="white" transform="matrix(-1 0 0 1 576.646 26)"/>
</clipPath>
<clipPath id="clip1_3_8">
<rect width="131" height="204" fill="white" transform="matrix(-1 0 0 1 562.646 54)"/>
</clipPath>
<clipPath id="clip2_3_8">
<rect width="131" height="54" fill="white" transform="matrix(-1 0 0 1 562.646 54)"/>
</clipPath>
<clipPath id="clip3_3_8">
<rect width="73" height="21.6" fill="white" transform="matrix(-1 0 0 1 523.646 70.2)"/>
</clipPath>
<clipPath id="clip4_3_8">
<rect width="131" height="42" fill="white" transform="matrix(-1 0 0 1 562.646 116)"/>
</clipPath>
<clipPath id="clip5_3_8">
<rect width="73" height="16.8" fill="white" transform="matrix(-1 0 0 1 523.646 128.6)"/>
</clipPath>
<clipPath id="clip6_3_8">
<rect width="131" height="42" fill="white" transform="matrix(-1 0 0 1 562.646 166)"/>
</clipPath>
<clipPath id="clip7_3_8">
<rect width="73" height="16.8" fill="white" transform="matrix(-1 0 0 1 523.646 178.6)"/>
</clipPath>
<clipPath id="clip8_3_8">
<rect width="131" height="42" fill="white" transform="matrix(-1 0 0 1 562.646 216)"/>
</clipPath>
<clipPath id="clip9_3_8">
<rect width="73" height="16.8" fill="white" transform="matrix(-1 0 0 1 523.646 228.6)"/>
</clipPath>
<clipPath id="clip10_3_8">
<rect width="335" height="346" fill="white" transform="matrix(-1 0 0 1 444.646 77)"/>
</clipPath>
<clipPath id="clip11_3_8">
<rect width="70" height="194" fill="white" transform="matrix(-1 0 0 1 195.646 209)"/>
</clipPath>
<clipPath id="clip12_3_8">
<rect width="34" height="158" fill="white" transform="matrix(-1 0 0 1 177.646 227)"/>
</clipPath>
<clipPath id="clip13_3_8">
<rect width="225" height="282" fill="white" transform="matrix(-1 0 0 1 428.646 121)"/>
</clipPath>
<clipPath id="clip14_3_8">
<rect width="225" height="47" fill="white" transform="matrix(-1 0 0 1 428.646 121)"/>
</clipPath>
<clipPath id="clip15_3_8">
<rect width="167" height="18.8" fill="white" transform="matrix(-1 0 0 1 419.646 135.1)"/>
</clipPath>
<clipPath id="clip16_3_8">
<rect width="225" height="39" fill="white" transform="matrix(-1 0 0 1 428.646 176)"/>
</clipPath>
<clipPath id="clip17_3_8">
<rect width="167" height="15.6" fill="white" transform="matrix(-1 0 0 1 419.646 187.7)"/>
</clipPath>
<clipPath id="clip18_3_8">
<rect width="225" height="39" fill="white" transform="matrix(-1 0 0 1 428.646 223)"/>
</clipPath>
<clipPath id="clip19_3_8">
<rect width="167" height="15.6" fill="white" transform="matrix(-1 0 0 1 419.646 234.7)"/>
</clipPath>
<clipPath id="clip20_3_8">
<rect width="225" height="39" fill="white" transform="matrix(-1 0 0 1 428.646 364)"/>
</clipPath>
<clipPath id="clip21_3_8">
<rect width="167" height="15.6" fill="white" transform="matrix(-1 0 0 1 419.646 375.7)"/>
</clipPath>
<clipPath id="clip22_3_8">
<rect width="225" height="39" fill="white" transform="matrix(-1 0 0 1 428.646 317)"/>
</clipPath>
<clipPath id="clip23_3_8">
<rect width="167" height="15.6" fill="white" transform="matrix(-1 0 0 1 419.646 328.7)"/>
</clipPath>
<clipPath id="clip24_3_8">
<rect width="225" height="39" fill="white" transform="matrix(-1 0 0 1 428.646 270)"/>
</clipPath>
<clipPath id="clip25_3_8">
<rect width="167" height="15.6" fill="white" transform="matrix(-1 0 0 1 419.646 281.7)"/>
</clipPath>
</defs>
</svg>
