<svg width="89" height="102" viewBox="0 0 89 102" fill="none" xmlns="http://www.w3.org/2000/svg">
<path d="M84.9958 53.1416L53.2101 88.2041C52.5831 88.9014 51.7201 89.25 50.8571 89.25C50.0935 89.25 49.3269 88.9761 48.7184 88.422C47.4209 87.2391 47.3248 85.222 48.5042 83.9209L75.4573 54.1875H3.17857C1.42162 54.1875 0 52.7619 0 51C0 49.2381 1.42162 47.8125 3.17857 47.8125H75.4573L48.5042 18.0791C47.3248 16.778 47.4209 14.7609 48.7184 13.5779C50.019 12.4014 52.0275 12.4886 53.2101 13.7959L84.9958 48.8584C86.0978 50.0724 86.0978 51.9276 84.9958 53.1416Z" fill="#ABFF4F"/>
</svg>
