<svg width="127" height="145" viewBox="0 0 127 145" fill="none" xmlns="http://www.w3.org/2000/svg">
<path d="M108.857 9.0625H18.1429C8.1229 9.0625 0 17.178 0 27.1875V117.812C0 127.822 8.1229 135.938 18.1429 135.938H108.857C118.877 135.938 127 127.822 127 117.812V27.1875C127 17.178 118.877 9.0625 108.857 9.0625ZM52.1783 87.8372C54.9689 90.3506 55.1948 94.6431 52.6835 97.4394C51.3369 98.9263 49.4852 99.6875 47.625 99.6875C45.9995 99.6875 44.3737 99.1123 43.0717 97.9441L20.3931 77.5535C18.9624 76.2612 18.1429 74.4292 18.1429 72.5C18.1429 70.5708 18.9624 68.7388 20.3931 67.4465L43.0717 47.0559C45.8711 44.5513 50.1675 44.7815 52.6835 47.5606C55.1948 50.3572 54.9689 54.6494 52.1783 57.1628L35.1163 72.5L52.1783 87.8372ZM106.607 77.5535L83.9283 97.9441C82.6263 99.1123 81.0005 99.6875 79.375 99.6875C77.5148 99.6875 75.6631 98.9263 74.3165 97.4394C71.8052 94.6428 72.0311 90.3506 74.8217 87.8372L91.8836 72.5L74.8214 57.1628C72.0311 54.6494 71.8052 50.3569 74.3165 47.5606C76.8324 44.7727 81.1334 44.5515 83.9283 47.0559L106.607 67.4465C108.038 68.7388 108.857 70.5708 108.857 72.5C108.857 74.4292 108.038 76.2612 106.607 77.5535Z" fill="#064874"/>
</svg>
