<svg width="92" height="105" viewBox="0 0 92 105" fill="none" xmlns="http://www.w3.org/2000/svg">
<path d="M82.1429 98.4375C76.7009 98.4375 72.2857 94.0285 72.2857 88.5942V48.0992L54.1243 74.4827C50.4409 79.8275 41.5592 79.8275 37.8757 74.4827L19.7143 48.0992V88.5942C19.7143 94.0285 15.2991 98.4375 9.85714 98.4375C4.41518 98.4375 0 94.0285 0 88.5942V16.4095C0 12.0967 2.81093 8.29008 6.9308 7.00835C11.0573 5.72661 15.5301 7.27105 17.9815 10.8343L46 51.5341L74.0185 10.8343C76.4635 7.27105 80.9364 5.72661 85.0692 7.00835C89.1891 8.29008 92 12.0967 92 16.4095V88.5942C92 94.0285 87.5848 98.4375 82.1429 98.4375Z" fill="#ABFF4F"/>
</svg>
