<svg width="122" height="122" viewBox="0 0 122 122" fill="none" xmlns="http://www.w3.org/2000/svg">
<g clip-path="url(#clip0_5_11)">
<path d="M48.6835 1.20022C24.997 5.82455 5.91206 24.8649 1.2358 48.4776C-7.58061 93.0369 32.622 126.255 62.9061 121.557C72.7202 120.03 77.538 108.548 73.033 99.709C67.5302 88.8894 75.3934 76.2602 87.5458 76.2602H106.534C115.067 76.2602 121.977 69.2083 122 60.6971C121.881 23.1447 87.7097 -6.40262 48.6835 1.20022ZM22.8748 76.2602C18.6601 76.2602 15.2498 72.8497 15.2498 68.635C15.2498 64.4203 18.6601 61.01 22.8748 61.01C27.0895 61.01 30.4998 64.4203 30.4998 68.635C30.4998 72.8497 27.0893 76.2602 22.8748 76.2602ZM30.4998 45.7595C26.2851 45.7595 22.8748 42.3492 22.8748 38.1345C22.8748 33.9198 26.2851 30.5093 30.4998 30.5093C34.7145 30.5093 38.1248 33.9198 38.1248 38.1345C38.1248 42.3492 34.7143 45.7595 30.4998 45.7595ZM60.9998 30.5093C56.7851 30.5093 53.3748 27.0988 53.3748 22.8843C53.3748 18.6698 56.7851 15.2591 60.9998 15.2591C65.2145 15.2591 68.6248 18.6696 68.6248 22.8843C68.6248 27.099 65.2143 30.5093 60.9998 30.5093ZM91.4998 45.7595C87.2851 45.7595 83.8748 42.3492 83.8748 38.1345C83.8748 33.9198 87.2851 30.5093 91.4998 30.5093C95.7145 30.5093 99.1248 33.9198 99.1248 38.1345C99.1248 42.3492 95.7143 45.7595 91.4998 45.7595Z" fill="#064874"/>
</g>
<defs>
<clipPath id="clip0_5_11">
<rect width="122" height="122" fill="white"/>
</clipPath>
</defs>
</svg>
