<svg width="127" height="127" viewBox="0 0 127 127" fill="none" xmlns="http://www.w3.org/2000/svg">
<path d="M59.0007 48.356L73.7654 33.593C70.5292 32.4825 67.1145 31.7505 63.5005 31.7505C45.9586 31.7505 31.7512 45.9512 31.7512 63.5002C31.7512 81.0493 45.9586 95.2502 63.5005 95.2502C81.0424 95.2502 95.2498 81.0495 95.2498 63.5002C95.2498 59.8862 94.5183 56.4723 93.4078 53.2371L78.6644 67.9807C76.709 74.5393 70.6765 79.3752 63.5005 79.3752C54.7596 79.3752 47.6109 72.2439 47.6109 63.5002C47.6109 56.3294 52.4498 50.3138 59.0007 48.356ZM115.575 52.0757C113.326 54.3242 110.337 55.563 107.157 55.563C106.903 55.563 106.635 55.5025 106.378 55.4853C106.861 58.0864 107.143 60.7583 107.143 63.5002C107.143 87.6416 87.6347 107.156 63.5005 107.156C39.3663 107.156 19.8574 87.6416 19.8574 63.5002C19.8574 39.3588 39.366 19.8445 63.5005 19.8445C66.2561 19.8445 68.9402 20.1292 71.5533 20.6157C71.3313 17.2197 72.4805 13.87 74.9253 11.4253L80.0112 6.33908C74.7633 4.8255 69.2366 3.96949 63.5005 3.96949C30.6244 3.96949 3.96875 30.6144 3.96875 63.5002C3.96875 96.386 30.6244 123.031 63.5005 123.031C96.3766 123.031 123.032 96.3863 123.032 63.5002C123.032 57.7644 122.175 52.2372 120.662 46.989L115.575 52.0757ZM126.83 26.6308C126.408 25.2316 125.245 24.1774 123.811 23.8906L107.157 19.8445L103.111 3.19037C102.824 1.75641 101.77 0.593819 100.37 0.171395C98.9598 -0.254997 97.4482 0.128731 96.4133 1.16358L80.5383 17.0383C79.6002 17.9762 79.1934 19.3211 79.4531 20.6234L82.5381 36.0459L61.2758 57.307C58.9503 59.6324 58.9503 63.3995 61.2758 65.725C62.4384 66.8878 63.9616 67.469 65.4849 67.469C67.0079 67.469 68.5311 66.8878 69.694 65.725L90.9563 44.4634L106.378 47.5478C106.638 47.5984 106.897 47.6255 107.157 47.6255C108.2 47.6255 109.211 47.2147 109.963 46.4626L125.838 30.5879C126.873 29.553 127.253 28.0338 126.83 26.6308Z" fill="#064874"/>
</svg>
