<svg width="122" height="110" viewBox="0 0 122 110" fill="none" xmlns="http://www.w3.org/2000/svg">
<path d="M108.153 19.8999C109.292 20.3564 110.536 20.625 111.833 20.625C117.446 20.625 122 16.0059 122 10.3125C122 4.61914 117.446 0 111.833 0C106.22 0 101.667 4.61914 101.667 10.3125C101.667 10.8228 101.746 11.333 101.826 11.8433L81.6246 28.2251C80.4861 27.7686 79.2418 27.5 77.9444 27.5C76.6471 27.5 75.4028 27.7686 74.2643 28.2251L54.0634 11.8433C54.1428 11.333 54.2222 10.8228 54.2222 10.3125C54.2222 4.61914 49.6684 0 44.0556 0C38.4427 0 33.8889 4.61914 33.8889 10.3125C33.8889 11.2256 34.0477 12.1118 34.2595 12.9443L12.7613 34.751C11.9405 34.5361 11.0668 34.375 10.1667 34.375C4.55382 34.375 0 38.9941 0 44.6875C0 50.3809 4.55382 55 10.1667 55C15.7795 55 20.3333 50.3809 20.3333 44.6875C20.3333 43.7744 20.1745 42.8882 19.9627 42.0557L41.4609 20.249C42.2817 20.4639 43.1554 20.625 44.0556 20.625C45.3529 20.625 46.5972 20.3564 47.7357 19.8999L67.9366 36.2817C67.8572 36.792 67.7778 37.3022 67.7778 37.8125C67.7778 43.5059 72.3316 48.125 77.9444 48.125C83.5573 48.125 88.1111 43.5059 88.1111 37.8125C88.1111 37.3022 88.0317 36.792 87.9523 36.2817L108.153 19.8999ZM81.3333 68.75H74.5556C70.8123 68.75 67.7778 71.8281 67.7778 75.625V103.125C67.7778 106.922 70.8123 110 74.5556 110H81.3333C85.0766 110 88.1111 106.922 88.1111 103.125V75.625C88.1111 71.8281 85.0766 68.75 81.3333 68.75ZM115.222 41.25H108.444C104.701 41.25 101.667 44.3281 101.667 48.125V103.125C101.667 106.922 104.701 110 108.444 110H115.222C118.965 110 122 106.922 122 103.125V48.125C122 44.3281 118.965 41.25 115.222 41.25ZM47.4444 41.25H40.6667C36.9234 41.25 33.8889 44.3281 33.8889 48.125V103.125C33.8889 106.922 36.9234 110 40.6667 110H47.4444C51.1877 110 54.2222 106.922 54.2222 103.125V48.125C54.2222 44.3281 51.1877 41.25 47.4444 41.25ZM13.5556 75.625H6.77778C3.03454 75.625 0 78.7031 0 82.5V103.125C0 106.922 3.03454 110 6.77778 110H13.5556C17.2988 110 20.3333 106.922 20.3333 103.125V82.5C20.3333 78.7031 17.2988 75.625 13.5556 75.625Z" fill="#064874"/>
</svg>
